TaiLeMongKawng-Regular.ufo
<glyph name="uni0300" format="2">
  <advance width="0"/>
  <unicode hex="0300"/>
  <anchor x="-547" y="0" name="_U"/>
  <outline>
    <contour>
      <point x="-320" y="606" type="line"/>
      <point x="-336" y="619.333"/>
      <point x="-353.5" y="635.333"/>
      <point x="-372.5" y="654" type="curve" smooth="yes"/>
      <point x="-391.5" y="672.667"/>
      <point x="-409.167" y="691.333"/>
      <point x="-425.5" y="710" type="curve" smooth="yes"/>
      <point x="-441.833" y="728.667"/>
      <point x="-454" y="744"/>
      <point x="-462" y="756" type="curve"/>
      <point x="-462" y="766" type="line"/>
      <point x="-357" y="766" type="line"/>
      <point x="-349.667" y="752"/>
      <point x="-340.5" y="735.667"/>
      <point x="-329.5" y="717" type="curve" smooth="yes"/>
      <point x="-318.5" y="698.333"/>
      <point x="-306.833" y="680.167"/>
      <point x="-294.5" y="662.5" type="curve" smooth="yes"/>
      <point x="-282.167" y="644.833"/>
      <point x="-271" y="630"/>
      <point x="-261" y="618" type="curve"/>
      <point x="-261" y="606" type="line"/>
    </contour>
  </outline>
</glyph>
<glyph name="uni0301" format="2">
  <advance width="0"/>
  <unicode hex="0301"/>
  <anchor x="-547" y="0" name="_U"/>
  <outline>
    <contour>
      <point x="-372" y="606" type="line"/>
      <point x="-372" y="618" type="line"/>
      <point x="-363.333" y="628.667"/>
      <point x="-353.167" y="642.333"/>
      <point x="-341.5" y="659" type="curve" smooth="yes"/>
      <point x="-329.833" y="675.667"/>
      <point x="-318.167" y="693.5"/>
      <point x="-306.5" y="712.5" type="curve" smooth="yes"/>
      <point x="-294.833" y="731.5"/>
      <point x="-284.667" y="749.333"/>
      <point x="-276" y="766" type="curve"/>
      <point x="-170" y="766" type="line"/>
      <point x="-170" y="756" type="line"/>
      <point x="-179.333" y="742"/>
      <point x="-192.667" y="725.333"/>
      <point x="-210" y="706" type="curve" smooth="yes"/>
      <point x="-227.333" y="686.667"/>
      <point x="-245.333" y="667.833"/>
      <point x="-264" y="649.5" type="curve" smooth="yes"/>
      <point x="-282.667" y="631.167"/>
      <point x="-299" y="616.667"/>
      <point x="-313" y="606" type="curve"/>
    </contour>
  </outline>
</glyph>
<glyph name="uni0307" format="2">
  <advance width="0"/>
  <unicode hex="0307"/>
  <anchor x="-547" y="0" name="_U"/>
  <outline>
    <contour>
      <point x="-316" y="625" type="curve" smooth="yes"/>
      <point x="-330.667" y="625"/>
      <point x="-343" y="629.667"/>
      <point x="-353" y="639" type="curve" smooth="yes"/>
      <point x="-363" y="648.333"/>
      <point x="-368" y="662.333"/>
      <point x="-368" y="681" type="curve" smooth="yes"/>
      <point x="-368" y="700.333"/>
      <point x="-363" y="714.5"/>
      <point x="-353" y="723.5" type="curve" smooth="yes"/>
      <point x="-343" y="732.5"/>
      <point x="-330.667" y="737"/>
      <point x="-316" y="737" type="curve" smooth="yes"/>
      <point x="-302.667" y="737"/>
      <point x="-290.833" y="732.5"/>
      <point x="-280.5" y="723.5" type="curve" smooth="yes"/>
      <point x="-270.167" y="714.5"/>
      <point x="-265" y="700.333"/>
      <point x="-265" y="681" type="curve" smooth="yes"/>
      <point x="-265" y="662.333"/>
      <point x="-270.167" y="648.333"/>
      <point x="-280.5" y="639" type="curve" smooth="yes"/>
      <point x="-290.833" y="629.667"/>
      <point x="-302.667" y="625"/>
    </contour>
  </outline>
</glyph>
<glyph name="uni0308" format="2">
  <advance width="0"/>
  <unicode hex="0308"/>
  <anchor x="-547" y="0" name="_U"/>
  <outline>
    <contour>
      <point x="-410" y="631" type="curve" smooth="yes"/>
      <point x="-422.667" y="631"/>
      <point x="-433.667" y="635"/>
      <point x="-443" y="643" type="curve" smooth="yes"/>
      <point x="-452.333" y="651"/>
      <point x="-457" y="663.667"/>
      <point x="-457" y="681" type="curve" smooth="yes"/>
      <point x="-457" y="698.333"/>
      <point x="-452.333" y="710.833"/>
      <point x="-443" y="718.5" type="curve" smooth="yes"/>
      <point x="-433.667" y="726.167"/>
      <point x="-422.667" y="730"/>
      <point x="-410" y="730" type="curve" smooth="yes"/>
      <point x="-397.333" y="730"/>
      <point x="-386.333" y="726.167"/>
      <point x="-377" y="718.5" type="curve" smooth="yes"/>
      <point x="-367.667" y="710.833"/>
      <point x="-363" y="698.333"/>
      <point x="-363" y="681" type="curve" smooth="yes"/>
      <point x="-363" y="663.667"/>
      <point x="-367.667" y="651"/>
      <point x="-377" y="643" type="curve" smooth="yes"/>
      <point x="-386.333" y="635"/>
      <point x="-397.333" y="631"/>
    </contour>
    <contour>
      <point x="-223" y="631" type="curve" smooth="yes"/>
      <point x="-235.667" y="631"/>
      <point x="-246.5" y="635"/>
      <point x="-255.5" y="643" type="curve" smooth="yes"/>
      <point x="-264.5" y="651"/>
      <point x="-269" y="663.667"/>
      <point x="-269" y="681" type="curve" smooth="yes"/>
      <point x="-269" y="698.333"/>
      <point x="-264.5" y="710.833"/>
      <point x="-255.5" y="718.5" type="curve" smooth="yes"/>
      <point x="-246.5" y="726.167"/>
      <point x="-235.667" y="730"/>
      <point x="-223" y="730" type="curve" smooth="yes"/>
      <point x="-210.333" y="730"/>
      <point x="-199.333" y="726.167"/>
      <point x="-190" y="718.5" type="curve" smooth="yes"/>
      <point x="-180.667" y="710.833"/>
      <point x="-176" y="698.333"/>
      <point x="-176" y="681" type="curve" smooth="yes"/>
      <point x="-176" y="663.667"/>
      <point x="-180.667" y="651"/>
      <point x="-190" y="643" type="curve" smooth="yes"/>
      <point x="-199.333" y="635"/>
      <point x="-210.333" y="631"/>
    </contour>
  </outline>
</glyph>
<glyph name="uni1040" format="2">
  <advance width="630"/>
  <unicode hex="1040"/>
  <outline>
    <contour>
      <point x="301" y="-10" type="curve" smooth="yes"/>
      <point x="248.333" y="-10"/>
      <point x="202.833" y="2"/>
      <point x="164.5" y="26" type="curve" smooth="yes"/>
      <point x="126.167" y="50"/>
      <point x="96.5" y="82.8333"/>
      <point x="75.5" y="124.5" type="curve" smooth="yes"/>
      <point x="54.5" y="166.167"/>
      <point x="44" y="212.667"/>
      <point x="44" y="264" type="curve" smooth="yes"/>
      <point x="44" y="298"/>
      <point x="49.6667" y="331.667"/>
      <point x="61" y="365" type="curve" smooth="yes"/>
      <point x="72.3333" y="398.333"/>
      <point x="89.6667" y="428.667"/>
      <point x="113" y="456" type="curve" smooth="yes"/>
      <point x="136.333" y="483.333"/>
      <point x="166" y="505.167"/>
      <point x="202" y="521.5" type="curve" smooth="yes"/>
      <point x="238" y="537.833"/>
      <point x="280.333" y="546"/>
      <point x="329" y="546" type="curve" smooth="yes"/>
      <point x="384.333" y="546"/>
      <point x="431" y="533"/>
      <point x="469" y="507" type="curve" smooth="yes"/>
      <point x="507" y="481"/>
      <point x="536" y="447"/>
      <point x="556" y="405" type="curve" smooth="yes"/>
      <point x="576" y="363"/>
      <point x="586" y="317.667"/>
      <point x="586" y="269" type="curve" smooth="yes"/>
      <point x="586" y="237"/>
      <point x="580.5" y="204.5"/>
      <point x="569.5" y="171.5" type="curve" smooth="yes"/>
      <point x="558.5" y="138.5"/>
      <point x="541.333" y="108.333"/>
      <point x="518" y="81" type="curve" smooth="yes"/>
      <point x="494.667" y="53.6667"/>
      <point x="465.167" y="31.6667"/>
      <point x="429.5" y="15" type="curve" smooth="yes"/>
      <point x="393.833" y="-1.66667"/>
      <point x="351" y="-10"/>
    </contour>
    <contour>
      <point x="326" y="46" type="curve" smooth="yes"/>
      <point x="366" y="46"/>
      <point x="398.833" y="55.6667"/>
      <point x="424.5" y="75" type="curve" smooth="yes"/>
      <point x="450.167" y="94.3333"/>
      <point x="469.167" y="119.333"/>
      <point x="481.5" y="150" type="curve" smooth="yes"/>
      <point x="493.833" y="180.667"/>
      <point x="500" y="213.333"/>
      <point x="500" y="248" type="curve" smooth="yes"/>
      <point x="500" y="296"/>
      <point x="492.333" y="338.167"/>
      <point x="477" y="374.5" type="curve" smooth="yes"/>
      <point x="461.667" y="410.833"/>
      <point x="439.5" y="439.167"/>
      <point x="410.5" y="459.5" type="curve" smooth="yes"/>
      <point x="381.5" y="479.833"/>
      <point x="346.667" y="490"/>
      <point x="306" y="490" type="curve" smooth="yes"/>
      <point x="266" y="490"/>
      <point x="233" y="480.667"/>
      <point x="207" y="462" type="curve" smooth="yes"/>
      <point x="181" y="443.333"/>
      <point x="161.667" y="418.667"/>
      <point x="149" y="388" type="curve" smooth="yes"/>
      <point x="136.333" y="357.333"/>
      <point x="130" y="324"/>
      <point x="130" y="288" type="curve" smooth="yes"/>
      <point x="130" y="235.333"/>
      <point x="138.667" y="191"/>
      <point x="156" y="155" type="curve" smooth="yes"/>
      <point x="173.333" y="119"/>
      <point x="196.833" y="91.8333"/>
      <point x="226.5" y="73.5" type="curve" smooth="yes"/>
      <point x="256.167" y="55.1667"/>
      <point x="289.333" y="46"/>
    </contour>
  </outline>
</glyph>
<glyph name="uni1042" format="2">
  <advance width="599"/>
  <unicode hex="1042"/>
  <outline>
    <contour>
      <point x="257" y="-293" type="curve" smooth="yes"/>
      <point x="219.667" y="-293"/>
      <point x="184.833" y="-285"/>
      <point x="152.5" y="-269" type="curve" smooth="yes"/>
      <point x="120.167" y="-253"/>
      <point x="91.3333" y="-232.167"/>
      <point x="66" y="-206.5" type="curve" smooth="yes"/>
      <point x="40.6667" y="-180.833"/>
      <point x="20" y="-153"/>
      <point x="4" y="-123" type="curve"/>
      <point x="83" y="-88" type="line"/>
      <point x="89.6667" y="-106.667"/>
      <point x="101.167" y="-127.667"/>
      <point x="117.5" y="-151" type="curve" smooth="yes"/>
      <point x="133.833" y="-174.333"/>
      <point x="155" y="-194.5"/>
      <point x="181" y="-211.5" type="curve" smooth="yes"/>
      <point x="207" y="-228.5"/>
      <point x="237.333" y="-237"/>
      <point x="272" y="-237" type="curve" smooth="yes"/>
      <point x="311.333" y="-237"/>
      <point x="345.333" y="-228.167"/>
      <point x="374" y="-210.5" type="curve" smooth="yes"/>
      <point x="402.667" y="-192.833"/>
      <point x="424.833" y="-162.667"/>
      <point x="440.5" y="-120" type="curve" smooth="yes"/>
      <point x="456.167" y="-77.3333"/>
      <point x="464" y="-19"/>
      <point x="464" y="55" type="curve" smooth="yes"/>
      <point x="464" y="87"/>
      <point x="463.833" y="123.667"/>
      <point x="463.5" y="165" type="curve" smooth="yes"/>
      <point x="463.167" y="206.333"/>
      <point x="462.667" y="249.333"/>
      <point x="462" y="294" type="curve" smooth="yes"/>
      <point x="461.333" y="338.667"/>
      <point x="460.333" y="382"/>
      <point x="459" y="424" type="curve" smooth="yes"/>
      <point x="457.667" y="466"/>
      <point x="456" y="503.333"/>
      <point x="454" y="536" type="curve"/>
      <point x="540" y="546" type="line"/>
      <point x="542" y="512.667"/>
      <point x="543.5" y="475.667"/>
      <point x="544.5" y="435" type="curve" smooth="yes"/>
      <point x="545.5" y="394.333"/>
      <point x="546.5" y="352.333"/>
      <point x="547.5" y="309" type="curve" smooth="yes"/>
      <point x="548.5" y="265.667"/>
      <point x="549.167" y="222.833"/>
      <point x="549.5" y="180.5" type="curve" smooth="yes"/>
      <point x="549.833" y="138.167"/>
      <point x="550" y="98.6667"/>
      <point x="550" y="62" type="curve" smooth="yes"/>
      <point x="550" y="-50"/>
      <point x="525" y="-137.167"/>
      <point x="475" y="-199.5" type="curve" smooth="yes"/>
      <point x="425" y="-261.833"/>
      <point x="352.333" y="-293"/>
    </contour>
  </outline>
</glyph>
<glyph name="uni1043" format="2">
  <advance width="563"/>
  <unicode hex="1043"/>
  <outline>
    <contour>
      <point x="237" y="-10" type="curve" smooth="yes"/>
      <point x="227" y="-10"/>
      <point x="217.333" y="-9"/>
      <point x="208" y="-7" type="curve"/>
      <point x="409" y="-248" type="line"/>
      <point x="335" y="-291" type="line"/>
      <point x="38" y="107" type="line"/>
      <point x="102" y="151" type="line"/>
      <point x="122.667" y="112.333"/>
      <point x="147.833" y="85.1667"/>
      <point x="177.5" y="69.5" type="curve" smooth="yes"/>
      <point x="207.167" y="53.8333"/>
      <point x="235.333" y="46"/>
      <point x="262" y="46" type="curve" smooth="yes"/>
      <point x="302" y="46"/>
      <point x="334.667" y="55.6667"/>
      <point x="360" y="75" type="curve" smooth="yes"/>
      <point x="385.333" y="94.3333"/>
      <point x="404" y="119.333"/>
      <point x="416" y="150" type="curve" smooth="yes"/>
      <point x="428" y="180.667"/>
      <point x="434" y="212.667"/>
      <point x="434" y="246" type="curve" smooth="yes"/>
      <point x="434" y="294.667"/>
      <point x="426.333" y="337.333"/>
      <point x="411" y="374" type="curve" smooth="yes"/>
      <point x="395.667" y="410.667"/>
      <point x="373.667" y="439.167"/>
      <point x="345" y="459.5" type="curve" smooth="yes"/>
      <point x="316.333" y="479.833"/>
      <point x="281.667" y="490"/>
      <point x="241" y="490" type="curve" smooth="yes"/>
      <point x="183.667" y="490"/>
      <point x="131" y="468.667"/>
      <point x="83" y="426" type="curve"/>
      <point x="53" y="458" type="line"/>
      <point x="67.6667" y="472.667"/>
      <point x="85.5" y="486.667"/>
      <point x="106.5" y="500" type="curve" smooth="yes"/>
      <point x="127.5" y="513.333"/>
      <point x="150.667" y="524.333"/>
      <point x="176" y="533" type="curve" smooth="yes"/>
      <point x="201.333" y="541.667"/>
      <point x="227" y="546"/>
      <point x="253" y="546" type="curve" smooth="yes"/>
      <point x="311.667" y="546"/>
      <point x="360.833" y="533"/>
      <point x="400.5" y="507" type="curve" smooth="yes"/>
      <point x="440.167" y="481"/>
      <point x="470" y="446.833"/>
      <point x="490" y="404.5" type="curve" smooth="yes"/>
      <point x="510" y="362.167"/>
      <point x="520" y="316.333"/>
      <point x="520" y="267" type="curve" smooth="yes"/>
      <point x="520" y="235"/>
      <point x="514.5" y="202.667"/>
      <point x="503.5" y="170" type="curve" smooth="yes"/>
      <point x="492.5" y="137.333"/>
      <point x="475.333" y="107.333"/>
      <point x="452" y="80" type="curve" smooth="yes"/>
      <point x="428.667" y="52.6667"/>
      <point x="399.333" y="30.8333"/>
      <point x="364" y="14.5" type="curve" smooth="yes"/>
      <point x="328.667" y="-1.83333"/>
      <point x="286.333" y="-10"/>
    </contour>
  </outline>
</glyph>
<glyph name="uni1047" format="2">
  <advance width="629"/>
  <unicode hex="1047"/>
  <outline>
    <contour>
      <point x="352" y="-293" type="curve" smooth="yes"/>
      <point x="305.333" y="-293"/>
      <point x="269.167" y="-280.833"/>
      <point x="243.5" y="-256.5" type="curve" smooth="yes"/>
      <point x="217.833" y="-232.167"/>
      <point x="205" y="-201"/>
      <point x="205" y="-163" type="curve" smooth="yes"/>
      <point x="205" y="-140.333"/>
      <point x="209.5" y="-119.333"/>
      <point x="218.5" y="-100" type="curve" smooth="yes"/>
      <point x="227.5" y="-80.6667"/>
      <point x="242.5" y="-59.5"/>
      <point x="263.5" y="-36.5" type="curve" smooth="yes"/>
      <point x="284.5" y="-13.5"/>
      <point x="312.667" y="14"/>
      <point x="348" y="46" type="curve" smooth="yes"/>
      <point x="376" y="71.3333"/>
      <point x="401.5" y="96.6667"/>
      <point x="424.5" y="122" type="curve" smooth="yes"/>
      <point x="447.5" y="147.333"/>
      <point x="465.667" y="174.333"/>
      <point x="479" y="203" type="curve" smooth="yes"/>
      <point x="492.333" y="231.667"/>
      <point x="499" y="264"/>
      <point x="499" y="300" type="curve" smooth="yes"/>
      <point x="499" y="335.333"/>
      <point x="491.5" y="367.333"/>
      <point x="476.5" y="396" type="curve" smooth="yes"/>
      <point x="461.5" y="424.667"/>
      <point x="439.667" y="447.5"/>
      <point x="411" y="464.5" type="curve" smooth="yes"/>
      <point x="382.333" y="481.5"/>
      <point x="347.667" y="490"/>
      <point x="307" y="490" type="curve" smooth="yes"/>
      <point x="267" y="490"/>
      <point x="233.833" y="480.667"/>
      <point x="207.5" y="462" type="curve" smooth="yes"/>
      <point x="181.167" y="443.333"/>
      <point x="161.667" y="418.5"/>
      <point x="149" y="387.5" type="curve" smooth="yes"/>
      <point x="136.333" y="356.5"/>
      <point x="130" y="321.667"/>
      <point x="130" y="283" type="curve" smooth="yes"/>
      <point x="130" y="244.333"/>
      <point x="135.167" y="212"/>
      <point x="145.5" y="186" type="curve" smooth="yes"/>
      <point x="155.833" y="160"/>
      <point x="168.5" y="139.167"/>
      <point x="183.5" y="123.5" type="curve" smooth="yes"/>
      <point x="198.5" y="107.833"/>
      <point x="213.333" y="95.6667"/>
      <point x="228" y="87" type="curve"/>
      <point x="200" y="44" type="line"/>
      <point x="172.667" y="55.3333"/>
      <point x="147.167" y="71.8333"/>
      <point x="123.5" y="93.5" type="curve" smooth="yes"/>
      <point x="99.8333" y="115.167"/>
      <point x="80.6667" y="141"/>
      <point x="66" y="171" type="curve" smooth="yes"/>
      <point x="51.3333" y="201"/>
      <point x="44" y="234.333"/>
      <point x="44" y="271" type="curve" smooth="yes"/>
      <point x="44" y="318.333"/>
      <point x="54.6667" y="363"/>
      <point x="76" y="405" type="curve" smooth="yes"/>
      <point x="97.3333" y="447"/>
      <point x="128.833" y="481"/>
      <point x="170.5" y="507" type="curve" smooth="yes"/>
      <point x="212.167" y="533"/>
      <point x="264" y="546"/>
      <point x="326" y="546" type="curve" smooth="yes"/>
      <point x="371.333" y="546"/>
      <point x="413.667" y="537"/>
      <point x="453" y="519" type="curve" smooth="yes"/>
      <point x="492.333" y="501"/>
      <point x="524.167" y="473.333"/>
      <point x="548.5" y="436" type="curve" smooth="yes"/>
      <point x="572.833" y="398.667"/>
      <point x="585" y="350.667"/>
      <point x="585" y="292" type="curve" smooth="yes"/>
      <point x="585" y="249.333"/>
      <point x="578" y="212.333"/>
      <point x="564" y="181" type="curve" smooth="yes"/>
      <point x="550" y="149.667"/>
      <point x="529.167" y="119.5"/>
      <point x="501.5" y="90.5" type="curve" smooth="yes"/>
      <point x="473.833" y="61.5"/>
      <point x="439.333" y="28.3333"/>
      <point x="398" y="-9" type="curve" smooth="yes"/>
      <point x="361.333" y="-41.6667"/>
      <point x="334.333" y="-70.1667"/>
      <point x="317" y="-94.5" type="curve" smooth="yes"/>
      <point x="299.667" y="-118.833"/>
      <point x="291" y="-143.333"/>
      <point x="291" y="-168" type="curve" smooth="yes"/>
      <point x="291" y="-192.667"/>
      <point x="298" y="-210.333"/>
      <point x="312" y="-221" type="curve" smooth="yes"/>
      <point x="326" y="-231.667"/>
      <point x="343" y="-237"/>
      <point x="363" y="-237" type="curve" smooth="yes"/>
      <point x="378.333" y="-237"/>
      <point x="397.167" y="-232.833"/>
      <point x="419.5" y="-224.5" type="curve" smooth="yes"/>
      <point x="441.833" y="-216.167"/>
      <point x="461.333" y="-203"/>
      <point x="478" y="-185" type="curve"/>
      <point x="506" y="-220" type="line"/>
      <point x="489.333" y="-239.333"/>
      <point x="467.833" y="-256.333"/>
      <point x="441.5" y="-271" type="curve" smooth="yes"/>
      <point x="415.167" y="-285.667"/>
      <point x="385.333" y="-293"/>
    </contour>
  </outline>
</glyph>
<glyph name="uni1048" format="2">
  <advance width="659"/>
  <unicode hex="1048"/>
  <outline>
    <contour>
      <point x="215" y="-10" type="curve"/>
      <point x="179" y="2.66667"/>
      <point x="148.167" y="23.6667"/>
      <point x="122.5" y="53" type="curve" smooth="yes"/>
      <point x="96.8333" y="82.3333"/>
      <point x="77.3333" y="115.833"/>
      <point x="64" y="153.5" type="curve" smooth="yes"/>
      <point x="50.6667" y="191.167"/>
      <point x="44" y="228"/>
      <point x="44" y="264" type="curve" smooth="yes"/>
      <point x="44" y="298"/>
      <point x="50.3333" y="331.667"/>
      <point x="63" y="365" type="curve" smooth="yes"/>
      <point x="75.6667" y="398.333"/>
      <point x="94.1667" y="428.667"/>
      <point x="118.5" y="456" type="curve" smooth="yes"/>
      <point x="142.833" y="483.333"/>
      <point x="172.833" y="505.167"/>
      <point x="208.5" y="521.5" type="curve" smooth="yes"/>
      <point x="244.167" y="537.833"/>
      <point x="285.333" y="546"/>
      <point x="332" y="546" type="curve" smooth="yes"/>
      <point x="379.333" y="546"/>
      <point x="420.667" y="537.667"/>
      <point x="456" y="521" type="curve" smooth="yes"/>
      <point x="491.333" y="504.333"/>
      <point x="520.667" y="482.333"/>
      <point x="544" y="455" type="curve" smooth="yes"/>
      <point x="567.333" y="427.667"/>
      <point x="585" y="397.833"/>
      <point x="597" y="365.5" type="curve" smooth="yes"/>
      <point x="609" y="333.167"/>
      <point x="615" y="301"/>
      <point x="615" y="269" type="curve" smooth="yes"/>
      <point x="615" y="230.333"/>
      <point x="607.167" y="192.833"/>
      <point x="591.5" y="156.5" type="curve" smooth="yes"/>
      <point x="575.833" y="120.167"/>
      <point x="554.333" y="87.6667"/>
      <point x="527" y="59" type="curve" smooth="yes"/>
      <point x="499.667" y="30.3333"/>
      <point x="468.667" y="7.33333"/>
      <point x="434" y="-10" type="curve"/>
      <point x="410" y="34" type="line"/>
      <point x="443.333" y="51.3333"/>
      <point x="471.5" y="79.6667"/>
      <point x="494.5" y="119" type="curve" smooth="yes"/>
      <point x="517.5" y="158.333"/>
      <point x="529" y="202.667"/>
      <point x="529" y="252" type="curve" smooth="yes"/>
      <point x="529" y="300"/>
      <point x="519.833" y="341.833"/>
      <point x="501.5" y="377.5" type="curve" smooth="yes"/>
      <point x="483.167" y="413.167"/>
      <point x="458.167" y="440.833"/>
      <point x="426.5" y="460.5" type="curve" smooth="yes"/>
      <point x="394.833" y="480.167"/>
      <point x="358.667" y="490"/>
      <point x="318" y="490" type="curve" smooth="yes"/>
      <point x="289.333" y="490"/>
      <point x="263.333" y="484.667"/>
      <point x="240" y="474" type="curve"/>
      <point x="260.667" y="454.667"/>
      <point x="279" y="432"/>
      <point x="295" y="406" type="curve" smooth="yes"/>
      <point x="311" y="380"/>
      <point x="323.5" y="353.167"/>
      <point x="332.5" y="325.5" type="curve" smooth="yes"/>
      <point x="341.5" y="297.833"/>
      <point x="346" y="271.667"/>
      <point x="346" y="247" type="curve" smooth="yes"/>
      <point x="346" y="197"/>
      <point x="333.5" y="149.167"/>
      <point x="308.5" y="103.5" type="curve" smooth="yes"/>
      <point x="283.5" y="57.8333"/>
      <point x="252.333" y="20"/>
    </contour>
    <contour>
      <point x="130" y="283" type="curve" smooth="yes"/>
      <point x="130" y="226.333"/>
      <point x="138.333" y="178.833"/>
      <point x="155" y="140.5" type="curve" smooth="yes"/>
      <point x="171.667" y="102.167"/>
      <point x="190.333" y="76.3333"/>
      <point x="211" y="63" type="curve"/>
      <point x="227.667" y="85.6667"/>
      <point x="240" y="111.833"/>
      <point x="248" y="141.5" type="curve" smooth="yes"/>
      <point x="256" y="171.167"/>
      <point x="260" y="201.667"/>
      <point x="260" y="233" type="curve" smooth="yes"/>
      <point x="260" y="283.667"/>
      <point x="253.667" y="325.5"/>
      <point x="241" y="358.5" type="curve" smooth="yes"/>
      <point x="228.333" y="391.5"/>
      <point x="212" y="419"/>
      <point x="192" y="441" type="curve"/>
      <point x="171.333" y="422.333"/>
      <point x="155.833" y="399.167"/>
      <point x="145.5" y="371.5" type="curve" smooth="yes"/>
      <point x="135.167" y="343.833"/>
      <point x="130" y="314.333"/>
    </contour>
  </outline>
</glyph>
<glyph name="uni1950" format="2">
  <advance width="513"/>
  <unicode hex="1950"/>
  <anchor x="0" y="0" name="U"/>
  <outline>
    <contour>
      <point x="370" y="-10" type="line"/>
      <point x="374.667" y="37.3333"/>
      <point x="378" y="82"/>
      <point x="380" y="124" type="curve" smooth="yes"/>
      <point x="382" y="166"/>
      <point x="383" y="203"/>
      <point x="383" y="235" type="curve" smooth="yes"/>
      <point x="383" y="322.333"/>
      <point x="377" y="385.333"/>
      <point x="365" y="424" type="curve" smooth="yes"/>
      <point x="353" y="462.667"/>
      <point x="340.333" y="482"/>
      <point x="327" y="482" type="curve" smooth="yes"/>
      <point x="315.667" y="482"/>
      <point x="303" y="476.333"/>
      <point x="289" y="465" type="curve" smooth="yes"/>
      <point x="275" y="453.667"/>
      <point x="260" y="439.5"/>
      <point x="244" y="422.5" type="curve" smooth="yes"/>
      <point x="228" y="405.5"/>
      <point x="211.667" y="387.833"/>
      <point x="195" y="369.5" type="curve" smooth="yes"/>
      <point x="178.333" y="351.167"/>
      <point x="161.833" y="334.5"/>
      <point x="145.5" y="319.5" type="curve" smooth="yes"/>
      <point x="129.167" y="304.5"/>
      <point x="113.333" y="293.667"/>
      <point x="98" y="287" type="curve"/>
      <point x="29" y="285" type="line"/>
      <point x="25" y="309"/>
      <point x="19.6667" y="336.833"/>
      <point x="13" y="368.5" type="curve" smooth="yes"/>
      <point x="6.33333" y="400.167"/>
      <point x="-1.33333" y="428"/>
      <point x="-10" y="452" type="curve"/>
      <point x="66" y="488" type="line"/>
      <point x="74.6667" y="468.667"/>
      <point x="81.8333" y="448.333"/>
      <point x="87.5" y="427" type="curve" smooth="yes"/>
      <point x="93.1667" y="405.667"/>
      <point x="97" y="383.667"/>
      <point x="99" y="361" type="curve"/>
      <point x="114.333" y="370.333"/>
      <point x="131.667" y="384.833"/>
      <point x="151" y="404.5" type="curve" smooth="yes"/>
      <point x="170.333" y="424.167"/>
      <point x="191.167" y="445"/>
      <point x="213.5" y="467" type="curve" smooth="yes"/>
      <point x="235.833" y="489"/>
      <point x="258.833" y="507.667"/>
      <point x="282.5" y="523" type="curve" smooth="yes"/>
      <point x="306.167" y="538.333"/>
      <point x="330" y="546"/>
      <point x="354" y="546" type="curve" smooth="yes"/>
      <point x="375.333" y="546"/>
      <point x="394.667" y="536.833"/>
      <point x="412" y="518.5" type="curve" smooth="yes"/>
      <point x="429.333" y="500.167"/>
      <point x="443.167" y="469.667"/>
      <point x="453.5" y="427" type="curve" smooth="yes"/>
      <point x="463.833" y="384.333"/>
      <point x="469" y="326"/>
      <point x="469" y="252" type="curve" smooth="yes"/>
      <point x="469" y="232"/>
      <point x="468.5" y="208.5"/>
      <point x="467.5" y="181.5" type="curve" smooth="yes"/>
      <point x="466.5" y="154.5"/>
      <point x="465.333" y="126.167"/>
      <point x="464" y="96.5" type="curve" smooth="yes"/>
      <point x="462.667" y="66.8333"/>
      <point x="460.667" y="38"/>
      <point x="458" y="10" type="curve"/>
    </contour>
  </outline>
</glyph>
<glyph name="uni1953" format="2">
  <advance width="727"/>
  <unicode hex="1953"/>
  <anchor x="102" y="0" name="U"/>
  <outline>
    <contour>
      <point x="407" y="-10" type="curve" smooth="yes"/>
      <point x="336.333" y="-10"/>
      <point x="285.333" y="14.3333"/>
      <point x="254" y="63" type="curve" smooth="yes"/>
      <point x="222.667" y="111.667"/>
      <point x="207" y="180.333"/>
      <point x="207" y="269" type="curve" smooth="yes"/>
      <point x="207" y="365" type="line" smooth="yes"/>
      <point x="207" y="443"/>
      <point x="191" y="482"/>
      <point x="159" y="482" type="curve" smooth="yes"/>
      <point x="127.667" y="482"/>
      <point x="99.6667" y="447.333"/>
      <point x="75" y="378" type="curve"/>
      <point x="7" y="375" type="line"/>
      <point x="6.33333" y="399.667"/>
      <point x="4.66667" y="427.333"/>
      <point x="2" y="458" type="curve" smooth="yes"/>
      <point x="-0.666667" y="488.667"/>
      <point x="-4.66667" y="516.333"/>
      <point x="-10" y="541" type="curve"/>
      <point x="67" y="567" type="line"/>
      <point x="71" y="554.333"/>
      <point x="74.5" y="540.5"/>
      <point x="77.5" y="525.5" type="curve" smooth="yes"/>
      <point x="80.5" y="510.5"/>
      <point x="82.3333" y="494.667"/>
      <point x="83" y="478" type="curve"/>
      <point x="97.6667" y="496"/>
      <point x="114.5" y="511.833"/>
      <point x="133.5" y="525.5" type="curve" smooth="yes"/>
      <point x="152.5" y="539.167"/>
      <point x="172.333" y="546"/>
      <point x="193" y="546" type="curve" smooth="yes"/>
      <point x="215.667" y="546"/>
      <point x="233.5" y="541.167"/>
      <point x="246.5" y="531.5" type="curve" smooth="yes"/>
      <point x="259.5" y="521.833"/>
      <point x="269.333" y="509.5"/>
      <point x="276" y="494.5" type="curve" smooth="yes"/>
      <point x="282.667" y="479.5"/>
      <point x="287.333" y="464"/>
      <point x="290" y="448" type="curve"/>
      <point x="315.333" y="476"/>
      <point x="343.333" y="499.333"/>
      <point x="374" y="518" type="curve" smooth="yes"/>
      <point x="404.667" y="536.667"/>
      <point x="435" y="546"/>
      <point x="465" y="546" type="curve" smooth="yes"/>
      <point x="537" y="546"/>
      <point x="591.333" y="523.167"/>
      <point x="628" y="477.5" type="curve" smooth="yes"/>
      <point x="664.667" y="431.833"/>
      <point x="683" y="369.333"/>
      <point x="683" y="290" type="curve" smooth="yes"/>
      <point x="683" y="264"/>
      <point x="682.667" y="234.833"/>
      <point x="682" y="202.5" type="curve" smooth="yes"/>
      <point x="681.333" y="170.167"/>
      <point x="680.333" y="137.167"/>
      <point x="679" y="103.5" type="curve" smooth="yes"/>
      <point x="677.667" y="69.8333"/>
      <point x="675.667" y="38.6667"/>
      <point x="673" y="10" type="curve"/>
      <point x="588" y="-10" type="line"/>
      <point x="590.667" y="3.33333"/>
      <point x="592.833" y="18.3333"/>
      <point x="594.5" y="35" type="curve" smooth="yes"/>
      <point x="596.167" y="51.6667"/>
      <point x="597.333" y="69.3333"/>
      <point x="598" y="88" type="curve"/>
      <point x="567.333" y="56"/>
      <point x="533.833" y="31.6667"/>
      <point x="497.5" y="15" type="curve" smooth="yes"/>
      <point x="461.167" y="-1.66667"/>
      <point x="431" y="-10"/>
    </contour>
    <contour>
      <point x="428" y="54" type="curve" smooth="yes"/>
      <point x="469.333" y="54"/>
      <point x="502.333" y="63.6667"/>
      <point x="527" y="83" type="curve" smooth="yes"/>
      <point x="551.667" y="102.333"/>
      <point x="569.5" y="128.667"/>
      <point x="580.5" y="162" type="curve" smooth="yes"/>
      <point x="591.5" y="195.333"/>
      <point x="597" y="233"/>
      <point x="597" y="275" type="curve" smooth="yes"/>
      <point x="597" y="338.333"/>
      <point x="586.333" y="388.667"/>
      <point x="565" y="426" type="curve" smooth="yes"/>
      <point x="543.667" y="463.333"/>
      <point x="505.667" y="482"/>
      <point x="451" y="482" type="curve" smooth="yes"/>
      <point x="398.333" y="482"/>
      <point x="358.833" y="462.333"/>
      <point x="332.5" y="423" type="curve" smooth="yes"/>
      <point x="306.167" y="383.667"/>
      <point x="293" y="332.333"/>
      <point x="293" y="269" type="curve" smooth="yes"/>
      <point x="293" y="205.667"/>
      <point x="303.833" y="154"/>
      <point x="325.5" y="114" type="curve" smooth="yes"/>
      <point x="347.167" y="74"/>
      <point x="381.333" y="54"/>
    </contour>
  </outline>
</glyph>
<glyph name="uni1954" format="2">
  <advance width="658"/>
  <unicode hex="1954"/>
  <anchor x="97" y="0" name="U"/>
  <outline>
    <contour>
      <point x="354" y="-10" type="curve" smooth="yes"/>
      <point x="310.667" y="-10"/>
      <point x="278.5" y="-0.166667"/>
      <point x="257.5" y="19.5" type="curve" smooth="yes"/>
      <point x="236.5" y="39.1667"/>
      <point x="222.833" y="68.5"/>
      <point x="216.5" y="107.5" type="curve" smooth="yes"/>
      <point x="210.167" y="146.5"/>
      <point x="207" y="195"/>
      <point x="207" y="253" type="curve" smooth="yes"/>
      <point x="207" y="325" type="line" smooth="yes"/>
      <point x="207" y="366.333"/>
      <point x="205.667" y="398.333"/>
      <point x="203" y="421" type="curve" smooth="yes"/>
      <point x="200.333" y="443.667"/>
      <point x="195.667" y="459.5"/>
      <point x="189" y="468.5" type="curve" smooth="yes"/>
      <point x="182.333" y="477.5"/>
      <point x="172.333" y="482"/>
      <point x="159" y="482" type="curve" smooth="yes"/>
      <point x="127.667" y="482"/>
      <point x="99.6667" y="447.333"/>
      <point x="75" y="378" type="curve"/>
      <point x="7" y="375" type="line"/>
      <point x="6.33333" y="399.667"/>
      <point x="4.66667" y="427.333"/>
      <point x="2" y="458" type="curve" smooth="yes"/>
      <point x="-0.666667" y="488.667"/>
      <point x="-4.66667" y="516.333"/>
      <point x="-10" y="541" type="curve"/>
      <point x="67" y="567" type="line"/>
      <point x="71" y="554.333"/>
      <point x="74.5" y="540.5"/>
      <point x="77.5" y="525.5" type="curve" smooth="yes"/>
      <point x="80.5" y="510.5"/>
      <point x="82.3333" y="494.667"/>
      <point x="83" y="478" type="curve"/>
      <point x="97.6667" y="496"/>
      <point x="114.5" y="511.833"/>
      <point x="133.5" y="525.5" type="curve" smooth="yes"/>
      <point x="152.5" y="539.167"/>
      <point x="172.333" y="546"/>
      <point x="193" y="546" type="curve" smooth="yes"/>
      <point x="217" y="546"/>
      <point x="235.833" y="538"/>
      <point x="249.5" y="522" type="curve" smooth="yes"/>
      <point x="263.167" y="506"/>
      <point x="273" y="485.667"/>
      <point x="279" y="461" type="curve" smooth="yes"/>
      <point x="285" y="436.333"/>
      <point x="288.833" y="410.167"/>
      <point x="290.5" y="382.5" type="curve" smooth="yes"/>
      <point x="292.167" y="354.833"/>
      <point x="293" y="329.333"/>
      <point x="293" y="306" type="curve" smooth="yes"/>
      <point x="293" y="260" type="line" smooth="yes"/>
      <point x="293" y="208"/>
      <point x="294.667" y="167"/>
      <point x="298" y="137" type="curve" smooth="yes"/>
      <point x="301.333" y="107"/>
      <point x="309" y="85.6667"/>
      <point x="321" y="73" type="curve" smooth="yes"/>
      <point x="333" y="60.3333"/>
      <point x="351.667" y="54"/>
      <point x="377" y="54" type="curve" smooth="yes"/>
      <point x="407" y="54"/>
      <point x="434.5" y="60"/>
      <point x="459.5" y="72" type="curve" smooth="yes"/>
      <point x="484.5" y="84"/>
      <point x="505.667" y="98"/>
      <point x="523" y="114" type="curve"/>
      <point x="524.333" y="146.667"/>
      <point x="525.5" y="177.833"/>
      <point x="526.5" y="207.5" type="curve" smooth="yes"/>
      <point x="527.5" y="237.167"/>
      <point x="528" y="263.667"/>
      <point x="528" y="287" type="curve" smooth="yes"/>
      <point x="528" y="338.333"/>
      <point x="527" y="384.833"/>
      <point x="525" y="426.5" type="curve" smooth="yes"/>
      <point x="523" y="468.167"/>
      <point x="519.667" y="504.667"/>
      <point x="515" y="536" type="curve"/>
      <point x="595" y="546" type="line"/>
      <point x="598.333" y="533.333"/>
      <point x="601.333" y="514.333"/>
      <point x="604" y="489" type="curve" smooth="yes"/>
      <point x="606.667" y="463.667"/>
      <point x="609" y="434.5"/>
      <point x="611" y="401.5" type="curve" smooth="yes"/>
      <point x="613" y="368.5"/>
      <point x="614" y="333.333"/>
      <point x="614" y="296" type="curve" smooth="yes"/>
      <point x="614" y="270.667"/>
      <point x="613.5" y="240.5"/>
      <point x="612.5" y="205.5" type="curve" smooth="yes"/>
      <point x="611.5" y="170.5"/>
      <point x="610.167" y="135.667"/>
      <point x="608.5" y="101" type="curve" smooth="yes"/>
      <point x="606.833" y="66.3333"/>
      <point x="605" y="36"/>
      <point x="603" y="10" type="curve"/>
      <point x="516" y="-10" type="line"/>
      <point x="516.667" y="0.666667"/>
      <point x="517.333" y="11.1667"/>
      <point x="518" y="21.5" type="curve" smooth="yes"/>
      <point x="518.667" y="31.8333"/>
      <point x="519.333" y="42"/>
      <point x="520" y="52" type="curve"/>
      <point x="495.333" y="34.6667"/>
      <point x="467.333" y="20"/>
      <point x="436" y="8" type="curve" smooth="yes"/>
      <point x="404.667" y="-4"/>
      <point x="377.333" y="-10"/>
    </contour>
  </outline>
</glyph>
<glyph name="uni1957" format="2">
  <advance width="967"/>
  <unicode hex="1957"/>
  <anchor x="258" y="0" name="U"/>
  <outline>
    <contour>
      <point x="256" y="-10" type="curve" smooth="yes"/>
      <point x="185.333" y="-10"/>
      <point x="134.5" y="14.3333"/>
      <point x="103.5" y="63" type="curve" smooth="yes"/>
      <point x="72.5" y="111.667"/>
      <point x="57" y="180.333"/>
      <point x="57" y="269" type="curve" smooth="yes"/>
      <point x="57" y="365" type="line" smooth="yes"/>
      <point x="57" y="384.333"/>
      <point x="55.8333" y="407"/>
      <point x="53.5" y="433" type="curve" smooth="yes"/>
      <point x="51.1667" y="459"/>
      <point x="48" y="483.333"/>
      <point x="44" y="506" type="curve"/>
      <point x="127" y="542" type="line"/>
      <point x="131" y="526.667"/>
      <point x="134.167" y="511"/>
      <point x="136.5" y="495" type="curve" smooth="yes"/>
      <point x="138.833" y="479"/>
      <point x="140.333" y="464"/>
      <point x="141" y="450" type="curve"/>
      <point x="166.333" y="477.333"/>
      <point x="194.167" y="500.167"/>
      <point x="224.5" y="518.5" type="curve" smooth="yes"/>
      <point x="254.833" y="536.833"/>
      <point x="284.667" y="546"/>
      <point x="314" y="546" type="curve" smooth="yes"/>
      <point x="363.333" y="546"/>
      <point x="404.167" y="535.333"/>
      <point x="436.5" y="514" type="curve" smooth="yes"/>
      <point x="468.833" y="492.667"/>
      <point x="493" y="462.333"/>
      <point x="509" y="423" type="curve"/>
      <point x="535" y="457.667"/>
      <point x="565.667" y="486.833"/>
      <point x="601" y="510.5" type="curve" smooth="yes"/>
      <point x="636.333" y="534.167"/>
      <point x="671" y="546"/>
      <point x="705" y="546" type="curve" smooth="yes"/>
      <point x="777.667" y="546"/>
      <point x="832.167" y="523"/>
      <point x="868.5" y="477" type="curve" smooth="yes"/>
      <point x="904.833" y="431"/>
      <point x="923" y="368"/>
      <point x="923" y="288" type="curve" smooth="yes"/>
      <point x="923" y="242.667"/>
      <point x="922.667" y="195.833"/>
      <point x="922" y="147.5" type="curve" smooth="yes"/>
      <point x="921.333" y="99.1667"/>
      <point x="920" y="53.3333"/>
      <point x="918" y="10" type="curve"/>
      <point x="833" y="-10" type="line"/>
      <point x="834.333" y="6"/>
      <point x="835.167" y="22.1667"/>
      <point x="835.5" y="38.5" type="curve" smooth="yes"/>
      <point x="835.833" y="54.8333"/>
      <point x="836.333" y="71.3333"/>
      <point x="837" y="88" type="curve"/>
      <point x="806.333" y="56.6667"/>
      <point x="772.833" y="32.5"/>
      <point x="736.5" y="15.5" type="curve" smooth="yes"/>
      <point x="700.167" y="-1.5"/>
      <point x="670" y="-10"/>
      <point x="646" y="-10" type="curve" smooth="yes"/>
      <point x="600" y="-10"/>
      <point x="562.5" y="0.5"/>
      <point x="533.5" y="21.5" type="curve" smooth="yes"/>
      <point x="504.5" y="42.5"/>
      <point x="483" y="72.6667"/>
      <point x="469" y="112" type="curve"/>
      <point x="447.667" y="86"/>
      <point x="423.833" y="64"/>
      <point x="397.5" y="46" type="curve" smooth="yes"/>
      <point x="371.167" y="28"/>
      <point x="345.5" y="14.1667"/>
      <point x="320.5" y="4.5" type="curve" smooth="yes"/>
      <point x="295.5" y="-5.16667"/>
      <point x="274" y="-10"/>
    </contour>
    <contour>
      <point x="277" y="54" type="curve" smooth="yes"/>
      <point x="318.333" y="54"/>
      <point x="351.5" y="63.6667"/>
      <point x="376.5" y="83" type="curve" smooth="yes"/>
      <point x="401.5" y="102.333"/>
      <point x="419.5" y="128.667"/>
      <point x="430.5" y="162" type="curve" smooth="yes"/>
      <point x="441.5" y="195.333"/>
      <point x="447" y="233"/>
      <point x="447" y="275" type="curve" smooth="yes"/>
      <point x="447" y="338.333"/>
      <point x="436.333" y="388.667"/>
      <point x="415" y="426" type="curve" smooth="yes"/>
      <point x="393.667" y="463.333"/>
      <point x="355.333" y="482"/>
      <point x="300" y="482" type="curve" smooth="yes"/>
      <point x="247.333" y="482"/>
      <point x="208" y="462.333"/>
      <point x="182" y="423" type="curve" smooth="yes"/>
      <point x="156" y="383.667"/>
      <point x="143" y="332.333"/>
      <point x="143" y="269" type="curve" smooth="yes"/>
      <point x="143" y="205.667"/>
      <point x="153.667" y="154"/>
      <point x="175" y="114" type="curve" smooth="yes"/>
      <point x="196.333" y="74"/>
      <point x="230.333" y="54"/>
    </contour>
    <contour>
      <point x="667" y="54" type="curve" smooth="yes"/>
      <point x="708.333" y="54"/>
      <point x="741.5" y="63.6667"/>
      <point x="766.5" y="83" type="curve" smooth="yes"/>
      <point x="791.5" y="102.333"/>
      <point x="809.5" y="128.667"/>
      <point x="820.5" y="162" type="curve" smooth="yes"/>
      <point x="831.5" y="195.333"/>
      <point x="837" y="233"/>
      <point x="837" y="275" type="curve" smooth="yes"/>
      <point x="837" y="338.333"/>
      <point x="826.333" y="388.667"/>
      <point x="805" y="426" type="curve" smooth="yes"/>
      <point x="783.667" y="463.333"/>
      <point x="745.333" y="482"/>
      <point x="690" y="482" type="curve" smooth="yes"/>
      <point x="637.333" y="482"/>
      <point x="598" y="462.333"/>
      <point x="572" y="423" type="curve" smooth="yes"/>
      <point x="546" y="383.667"/>
      <point x="533" y="332.333"/>
      <point x="533" y="269" type="curve" smooth="yes"/>
      <point x="533" y="205.667"/>
      <point x="543.667" y="154"/>
      <point x="565" y="114" type="curve" smooth="yes"/>
      <point x="586.333" y="74"/>
      <point x="620.333" y="54"/>
    </contour>
  </outline>
</glyph>
<glyph name="uni1958" format="2">
  <advance width="569"/>
  <unicode hex="1958"/>
  <anchor x="14" y="0" name="U"/>
  <outline>
    <contour>
      <point x="104" y="-10" type="curve" smooth="yes"/>
      <point x="75.3333" y="-10"/>
      <point x="53.8333" y="2.5"/>
      <point x="39.5" y="27.5" type="curve" smooth="yes"/>
      <point x="25.1667" y="52.5"/>
      <point x="17" y="90.3333"/>
      <point x="15" y="141" type="curve"/>
      <point x="96" y="155" type="line"/>
      <point x="96.6667" y="125"/>
      <point x="98.8333" y="102.667"/>
      <point x="102.5" y="88" type="curve" smooth="yes"/>
      <point x="106.167" y="73.3333"/>
      <point x="111.167" y="63.8333"/>
      <point x="117.5" y="59.5" type="curve" smooth="yes"/>
      <point x="123.833" y="55.1667"/>
      <point x="130.667" y="53"/>
      <point x="138" y="53" type="curve" smooth="yes"/>
      <point x="151.333" y="53"/>
      <point x="167.167" y="56"/>
      <point x="185.5" y="62" type="curve" smooth="yes"/>
      <point x="203.833" y="68"/>
      <point x="221" y="78"/>
      <point x="237" y="92" type="curve"/>
      <point x="233" y="103.333"/>
      <point x="230.167" y="116.167"/>
      <point x="228.5" y="130.5" type="curve" smooth="yes"/>
      <point x="226.833" y="144.833"/>
      <point x="225.333" y="160.667"/>
      <point x="224" y="178" type="curve"/>
      <point x="305" y="192" type="line"/>
      <point x="305.667" y="162"/>
      <point x="308" y="139.667"/>
      <point x="312" y="125" type="curve" smooth="yes"/>
      <point x="316" y="110.333"/>
      <point x="321" y="100.833"/>
      <point x="327" y="96.5" type="curve" smooth="yes"/>
      <point x="333" y="92.1667"/>
      <point x="339.667" y="90"/>
      <point x="347" y="90" type="curve" smooth="yes"/>
      <point x="359" y="90"/>
      <point x="373.167" y="92.6667"/>
      <point x="389.5" y="98" type="curve" smooth="yes"/>
      <point x="405.833" y="103.333"/>
      <point x="421.333" y="111.333"/>
      <point x="436" y="122" type="curve"/>
      <point x="438" y="164"/>
      <point x="439" y="201.667"/>
      <point x="439" y="235" type="curve" smooth="yes"/>
      <point x="439" y="255.667"/>
      <point x="438.167" y="280.167"/>
      <point x="436.5" y="308.5" type="curve" smooth="yes"/>
      <point x="434.833" y="336.833"/>
      <point x="432.5" y="365.667"/>
      <point x="429.5" y="395" type="curve" smooth="yes"/>
      <point x="426.5" y="424.333"/>
      <point x="423.167" y="450.833"/>
      <point x="419.5" y="474.5" type="curve" smooth="yes"/>
      <point x="415.833" y="498.167"/>
      <point x="411.667" y="516"/>
      <point x="407" y="528" type="curve"/>
      <point x="488" y="546" type="line"/>
      <point x="494" y="527.333"/>
      <point x="499.833" y="502.5"/>
      <point x="505.5" y="471.5" type="curve" smooth="yes"/>
      <point x="511.167" y="440.5"/>
      <point x="515.833" y="406.333"/>
      <point x="519.5" y="369" type="curve" smooth="yes"/>
      <point x="523.167" y="331.667"/>
      <point x="525" y="294.667"/>
      <point x="525" y="258" type="curve" smooth="yes"/>
      <point x="525" y="243.333"/>
      <point x="524.667" y="225"/>
      <point x="524" y="203" type="curve" smooth="yes"/>
      <point x="523.333" y="181"/>
      <point x="522.5" y="158"/>
      <point x="521.5" y="134" type="curve" smooth="yes"/>
      <point x="520.5" y="110"/>
      <point x="519.333" y="87.1667"/>
      <point x="518" y="65.5" type="curve" smooth="yes"/>
      <point x="516.667" y="43.8333"/>
      <point x="515" y="25.3333"/>
      <point x="513" y="10" type="curve"/>
      <point x="425" y="-10" type="line"/>
      <point x="426.333" y="4"/>
      <point x="427.833" y="17.8333"/>
      <point x="429.5" y="31.5" type="curve" smooth="yes"/>
      <point x="431.167" y="45.1667"/>
      <point x="432.333" y="58.3333"/>
      <point x="433" y="71" type="curve"/>
      <point x="413.667" y="58.3333"/>
      <point x="393.167" y="47.8333"/>
      <point x="371.5" y="39.5" type="curve" smooth="yes"/>
      <point x="349.833" y="31.1667"/>
      <point x="330.333" y="27"/>
      <point x="313" y="27" type="curve" smooth="yes"/>
      <point x="287.667" y="27"/>
      <point x="268" y="37"/>
      <point x="254" y="57" type="curve"/>
      <point x="233.333" y="39"/>
      <point x="208.667" y="23.3333"/>
      <point x="180" y="10" type="curve" smooth="yes"/>
      <point x="151.333" y="-3.33333"/>
      <point x="126" y="-10"/>
    </contour>
  </outline>
</glyph>
<glyph name="uni1959" format="2">
  <advance width="520"/>
  <unicode hex="1959"/>
  <anchor x="19" y="0" name="U"/>
  <outline>
    <contour>
      <point x="210" y="-10" type="curve" smooth="yes"/>
      <point x="167.333" y="-10"/>
      <point x="135.167" y="-0.166667"/>
      <point x="113.5" y="19.5" type="curve" smooth="yes"/>
      <point x="91.8333" y="39.1667"/>
      <point x="77.3333" y="68.5"/>
      <point x="70" y="107.5" type="curve" smooth="yes"/>
      <point x="62.6667" y="146.5"/>
      <point x="59" y="195"/>
      <point x="59" y="253" type="curve" smooth="yes"/>
      <point x="59" y="276" type="line" smooth="yes"/>
      <point x="59" y="310"/>
      <point x="58.3333" y="344"/>
      <point x="57" y="378" type="curve" smooth="yes"/>
      <point x="55.6667" y="412"/>
      <point x="53.8333" y="442.333"/>
      <point x="51.5" y="469" type="curve" smooth="yes"/>
      <point x="49.1667" y="495.667"/>
      <point x="46.6667" y="515.333"/>
      <point x="44" y="528" type="curve"/>
      <point x="126" y="546" type="line"/>
      <point x="132.667" y="519.333"/>
      <point x="137.5" y="482"/>
      <point x="140.5" y="434" type="curve" smooth="yes"/>
      <point x="143.5" y="386"/>
      <point x="145" y="334.333"/>
      <point x="145" y="279" type="curve" smooth="yes"/>
      <point x="145" y="260" type="line" smooth="yes"/>
      <point x="145" y="208"/>
      <point x="147.167" y="167"/>
      <point x="151.5" y="137" type="curve" smooth="yes"/>
      <point x="155.833" y="107"/>
      <point x="164.333" y="85.6667"/>
      <point x="177" y="73" type="curve" smooth="yes"/>
      <point x="189.667" y="60.3333"/>
      <point x="208.667" y="54"/>
      <point x="234" y="54" type="curve" smooth="yes"/>
      <point x="264" y="54"/>
      <point x="292.167" y="60.1667"/>
      <point x="318.5" y="72.5" type="curve" smooth="yes"/>
      <point x="344.833" y="84.8333"/>
      <point x="367.333" y="99.3333"/>
      <point x="386" y="116" type="curve"/>
      <point x="387.333" y="143.333"/>
      <point x="388.333" y="169"/>
      <point x="389" y="193" type="curve" smooth="yes"/>
      <point x="389.667" y="217"/>
      <point x="390" y="240.333"/>
      <point x="390" y="263" type="curve" smooth="yes"/>
      <point x="390" y="297"/>
      <point x="389.5" y="330.833"/>
      <point x="388.5" y="364.5" type="curve" smooth="yes"/>
      <point x="387.5" y="398.167"/>
      <point x="386.167" y="430"/>
      <point x="384.5" y="460" type="curve" smooth="yes"/>
      <point x="382.833" y="490"/>
      <point x="380.333" y="515.333"/>
      <point x="377" y="536" type="curve"/>
      <point x="457" y="546" type="line"/>
      <point x="461" y="528.667"/>
      <point x="464.5" y="505.5"/>
      <point x="467.5" y="476.5" type="curve" smooth="yes"/>
      <point x="470.5" y="447.5"/>
      <point x="472.667" y="415.333"/>
      <point x="474" y="380" type="curve" smooth="yes"/>
      <point x="475.333" y="344.667"/>
      <point x="476" y="308.333"/>
      <point x="476" y="271" type="curve" smooth="yes"/>
      <point x="476" y="245.667"/>
      <point x="475.5" y="217.667"/>
      <point x="474.5" y="187" type="curve" smooth="yes"/>
      <point x="473.5" y="156.333"/>
      <point x="472.167" y="125.667"/>
      <point x="470.5" y="95" type="curve" smooth="yes"/>
      <point x="468.833" y="64.3333"/>
      <point x="466.667" y="36"/>
      <point x="464" y="10" type="curve"/>
      <point x="377" y="-10" type="line"/>
      <point x="382" y="53" type="line"/>
      <point x="356" y="35.6667"/>
      <point x="327" y="20.8333"/>
      <point x="295" y="8.5" type="curve" smooth="yes"/>
      <point x="263" y="-3.83333"/>
      <point x="234.667" y="-10"/>
    </contour>
  </outline>
</glyph>
<glyph name="uni195F" format="2">
  <advance width="680"/>
  <unicode hex="195F"/>
  <anchor x="68" y="0" name="U"/>
  <outline>
    <contour>
      <point x="110" y="-127" type="curve" smooth="yes"/>
      <point x="94.6667" y="-127"/>
      <point x="78.8333" y="-124.5"/>
      <point x="62.5" y="-119.5" type="curve" smooth="yes"/>
      <point x="46.1667" y="-114.5"/>
      <point x="32" y="-109.333"/>
      <point x="20" y="-104" type="curve"/>
      <point x="20" y="-51" type="line"/>
      <point x="32.6667" y="-57"/>
      <point x="46.1667" y="-61.8333"/>
      <point x="60.5" y="-65.5" type="curve" smooth="yes"/>
      <point x="74.8333" y="-69.1667"/>
      <point x="89.6667" y="-71"/>
      <point x="105" y="-71" type="curve" smooth="yes"/>
      <point x="129.667" y="-71"/>
      <point x="148.833" y="-66.1667"/>
      <point x="162.5" y="-56.5" type="curve" smooth="yes"/>
      <point x="176.167" y="-46.8333"/>
      <point x="186.167" y="-29.5"/>
      <point x="192.5" y="-4.5" type="curve" smooth="yes"/>
      <point x="198.833" y="20.5"/>
      <point x="202.833" y="55.8333"/>
      <point x="204.5" y="101.5" type="curve" smooth="yes"/>
      <point x="206.167" y="147.167"/>
      <point x="207" y="206.333"/>
      <point x="207" y="279" type="curve" smooth="yes"/>
      <point x="207" y="325" type="line" smooth="yes"/>
      <point x="207" y="366.333"/>
      <point x="205.667" y="398.333"/>
      <point x="203" y="421" type="curve" smooth="yes"/>
      <point x="200.333" y="443.667"/>
      <point x="195.667" y="459.5"/>
      <point x="189" y="468.5" type="curve" smooth="yes"/>
      <point x="182.333" y="477.5"/>
      <point x="172.333" y="482"/>
      <point x="159" y="482" type="curve" smooth="yes"/>
      <point x="127.667" y="482"/>
      <point x="99.6667" y="447.333"/>
      <point x="75" y="378" type="curve"/>
      <point x="7" y="375" type="line"/>
      <point x="6.33333" y="399.667"/>
      <point x="4.66667" y="427.333"/>
      <point x="2" y="458" type="curve" smooth="yes"/>
      <point x="-0.666667" y="488.667"/>
      <point x="-4.66667" y="516.333"/>
      <point x="-10" y="541" type="curve"/>
      <point x="67" y="567" type="line"/>
      <point x="71" y="554.333"/>
      <point x="74.5" y="540.5"/>
      <point x="77.5" y="525.5" type="curve" smooth="yes"/>
      <point x="80.5" y="510.5"/>
      <point x="82.3333" y="494.667"/>
      <point x="83" y="478" type="curve"/>
      <point x="97.6667" y="496"/>
      <point x="114.5" y="511.833"/>
      <point x="133.5" y="525.5" type="curve" smooth="yes"/>
      <point x="152.5" y="539.167"/>
      <point x="172.333" y="546"/>
      <point x="193" y="546" type="curve" smooth="yes"/>
      <point x="220.333" y="546"/>
      <point x="241" y="535.333"/>
      <point x="255" y="514" type="curve" smooth="yes"/>
      <point x="269" y="492.667"/>
      <point x="278.667" y="467.333"/>
      <point x="284" y="438" type="curve"/>
      <point x="301.333" y="460"/>
      <point x="321.833" y="479"/>
      <point x="345.5" y="495" type="curve" smooth="yes"/>
      <point x="369.167" y="511"/>
      <point x="393.667" y="523.5"/>
      <point x="419" y="532.5" type="curve" smooth="yes"/>
      <point x="444.333" y="541.5"/>
      <point x="467.333" y="546"/>
      <point x="488" y="546" type="curve" smooth="yes"/>
      <point x="531.333" y="546"/>
      <point x="563.5" y="536"/>
      <point x="584.5" y="516" type="curve" smooth="yes"/>
      <point x="605.5" y="496"/>
      <point x="619.333" y="467.333"/>
      <point x="626" y="430" type="curve" smooth="yes"/>
      <point x="632.667" y="392.667"/>
      <point x="636" y="348"/>
      <point x="636" y="296" type="curve" smooth="yes"/>
      <point x="636" y="274.667"/>
      <point x="635.333" y="250.167"/>
      <point x="634" y="222.5" type="curve" smooth="yes"/>
      <point x="632.667" y="194.833"/>
      <point x="630.833" y="167.167"/>
      <point x="628.5" y="139.5" type="curve" smooth="yes"/>
      <point x="626.167" y="111.833"/>
      <point x="623.667" y="86.5"/>
      <point x="621" y="63.5" type="curve" smooth="yes"/>
      <point x="618.333" y="40.5"/>
      <point x="615.667" y="22.6667"/>
      <point x="613" y="10" type="curve"/>
      <point x="525" y="-10" type="line"/>
      <point x="530.333" y="27.3333"/>
      <point x="534.833" y="65.6667"/>
      <point x="538.5" y="105" type="curve" smooth="yes"/>
      <point x="542.167" y="144.333"/>
      <point x="545" y="181.333"/>
      <point x="547" y="216" type="curve" smooth="yes"/>
      <point x="549" y="250.667"/>
      <point x="550" y="279.333"/>
      <point x="550" y="302" type="curve" smooth="yes"/>
      <point x="550" y="344.667"/>
      <point x="548.167" y="379.167"/>
      <point x="544.5" y="405.5" type="curve" smooth="yes"/>
      <point x="540.833" y="431.833"/>
      <point x="533" y="451.167"/>
      <point x="521" y="463.5" type="curve" smooth="yes"/>
      <point x="509" y="475.833"/>
      <point x="490" y="482"/>
      <point x="464" y="482" type="curve" smooth="yes"/>
      <point x="421.333" y="482"/>
      <point x="385.667" y="470.667"/>
      <point x="357" y="448" type="curve" smooth="yes"/>
      <point x="328.333" y="425.333"/>
      <point x="306.667" y="399.333"/>
      <point x="292" y="370" type="curve"/>
      <point x="292" y="358.667"/>
      <point x="292.167" y="347.5"/>
      <point x="292.5" y="336.5" type="curve" smooth="yes"/>
      <point x="292.833" y="325.5"/>
      <point x="293" y="315.333"/>
      <point x="293" y="306" type="curve" smooth="yes"/>
      <point x="293" y="271" type="line" smooth="yes"/>
      <point x="293" y="189.667"/>
      <point x="287.833" y="119.167"/>
      <point x="277.5" y="59.5" type="curve" smooth="yes"/>
      <point x="267.167" y="-0.166667"/>
      <point x="248.833" y="-46.1667"/>
      <point x="222.5" y="-78.5" type="curve" smooth="yes"/>
      <point x="196.167" y="-110.833"/>
      <point x="158.667" y="-127"/>
    </contour>
  </outline>
</glyph>
<glyph name="uni1960" format="2">
  <advance width="508"/>
  <unicode hex="1960"/>
  <anchor x="14" y="0" name="U"/>
  <outline>
    <contour>
      <point x="246" y="-239" type="curve" smooth="yes"/>
      <point x="213.333" y="-239"/>
      <point x="184.167" y="-234.167"/>
      <point x="158.5" y="-224.5" type="curve" smooth="yes"/>
      <point x="132.833" y="-214.833"/>
      <point x="114.333" y="-205.667"/>
      <point x="103" y="-197" type="curve"/>
      <point x="103" y="-142" type="line"/>
      <point x="115.667" y="-154"/>
      <point x="134.667" y="-163.833"/>
      <point x="160" y="-171.5" type="curve" smooth="yes"/>
      <point x="185.333" y="-179.167"/>
      <point x="210.333" y="-183"/>
      <point x="235" y="-183" type="curve" smooth="yes"/>
      <point x="267" y="-183"/>
      <point x="292.667" y="-177.333"/>
      <point x="312" y="-166" type="curve" smooth="yes"/>
      <point x="331.333" y="-154.667"/>
      <point x="345.833" y="-133.333"/>
      <point x="355.5" y="-102" type="curve" smooth="yes"/>
      <point x="365.167" y="-70.6667"/>
      <point x="371.667" y="-25"/>
      <point x="375" y="35" type="curve"/>
      <point x="353" y="21.6667"/>
      <point x="328.5" y="10.8333"/>
      <point x="301.5" y="2.5" type="curve" smooth="yes"/>
      <point x="274.5" y="-5.83333"/>
      <point x="246.667" y="-10"/>
      <point x="218" y="-10" type="curve" smooth="yes"/>
      <point x="169.333" y="-10"/>
      <point x="129" y="2.83333"/>
      <point x="97" y="28.5" type="curve" smooth="yes"/>
      <point x="65" y="54.1667"/>
      <point x="49" y="94.3333"/>
      <point x="49" y="149" type="curve" smooth="yes"/>
      <point x="49" y="180.333"/>
      <point x="59.1667" y="209.833"/>
      <point x="79.5" y="237.5" type="curve" smooth="yes"/>
      <point x="99.8333" y="265.167"/>
      <point x="131.167" y="287.5"/>
      <point x="173.5" y="304.5" type="curve" smooth="yes"/>
      <point x="215.833" y="321.5"/>
      <point x="270" y="330"/>
      <point x="336" y="330" type="curve" smooth="yes"/>
      <point x="341.333" y="330"/>
      <point x="346.833" y="329.833"/>
      <point x="352.5" y="329.5" type="curve" smooth="yes"/>
      <point x="358.167" y="329.167"/>
      <point x="364" y="329"/>
      <point x="370" y="329" type="curve"/>
      <point x="365.333" y="369.667"/>
      <point x="358" y="401"/>
      <point x="348" y="423" type="curve" smooth="yes"/>
      <point x="338" y="445"/>
      <point x="324.833" y="460.333"/>
      <point x="308.5" y="469" type="curve" smooth="yes"/>
      <point x="292.167" y="477.667"/>
      <point x="271.667" y="482"/>
      <point x="247" y="482" type="curve" smooth="yes"/>
      <point x="218.333" y="482"/>
      <point x="194.167" y="473.667"/>
      <point x="174.5" y="457" type="curve" smooth="yes"/>
      <point x="154.833" y="440.333"/>
      <point x="139.667" y="414"/>
      <point x="129" y="378" type="curve"/>
      <point x="61" y="375" type="line"/>
      <point x="60.3333" y="399.667"/>
      <point x="58.6667" y="427.333"/>
      <point x="56" y="458" type="curve" smooth="yes"/>
      <point x="53.3333" y="488.667"/>
      <point x="49.3333" y="516.333"/>
      <point x="44" y="541" type="curve"/>
      <point x="121" y="567" type="line"/>
      <point x="124.333" y="554.333"/>
      <point x="127.5" y="540.667"/>
      <point x="130.5" y="526" type="curve" smooth="yes"/>
      <point x="133.5" y="511.333"/>
      <point x="135.333" y="495.667"/>
      <point x="136" y="479" type="curve"/>
      <point x="174.667" y="523.667"/>
      <point x="223.667" y="546"/>
      <point x="283" y="546" type="curve" smooth="yes"/>
      <point x="308.333" y="546"/>
      <point x="332" y="540.167"/>
      <point x="354" y="528.5" type="curve" smooth="yes"/>
      <point x="376" y="516.833"/>
      <point x="395.167" y="496.667"/>
      <point x="411.5" y="468" type="curve" smooth="yes"/>
      <point x="427.833" y="439.333"/>
      <point x="440.667" y="400"/>
      <point x="450" y="350" type="curve" smooth="yes"/>
      <point x="459.333" y="300"/>
      <point x="464" y="236.333"/>
      <point x="464" y="159" type="curve" smooth="yes"/>
      <point x="464" y="135.667"/>
      <point x="463.167" y="107.167"/>
      <point x="461.5" y="73.5" type="curve" smooth="yes"/>
      <point x="459.833" y="39.8333"/>
      <point x="455.5" y="5"/>
      <point x="448.5" y="-31" type="curve" smooth="yes"/>
      <point x="441.5" y="-67"/>
      <point x="430.167" y="-100.833"/>
      <point x="414.5" y="-132.5" type="curve" smooth="yes"/>
      <point x="398.833" y="-164.167"/>
      <point x="377.5" y="-189.833"/>
      <point x="350.5" y="-209.5" type="curve" smooth="yes"/>
      <point x="323.5" y="-229.167"/>
      <point x="288.667" y="-239"/>
    </contour>
    <contour>
      <point x="238" y="54" type="curve" smooth="yes"/>
      <point x="261.333" y="54"/>
      <point x="285.5" y="57.3333"/>
      <point x="310.5" y="64" type="curve" smooth="yes"/>
      <point x="335.5" y="70.6667"/>
      <point x="357.333" y="81.3333"/>
      <point x="376" y="96" type="curve"/>
      <point x="376.667" y="107.333"/>
      <point x="377" y="118.833"/>
      <point x="377" y="130.5" type="curve" smooth="yes"/>
      <point x="377" y="148"/>
      <point x="377" y="148"/>
      <point x="377" y="167" type="curve" smooth="yes"/>
      <point x="377" y="187"/>
      <point x="376.833" y="205.833"/>
      <point x="376.5" y="223.5" type="curve" smooth="yes"/>
      <point x="376.167" y="241.167"/>
      <point x="375.667" y="257.333"/>
      <point x="375" y="272" type="curve"/>
      <point x="367.667" y="272.667"/>
      <point x="360.5" y="273.167"/>
      <point x="353.5" y="273.5" type="curve" smooth="yes"/>
      <point x="346.5" y="273.833"/>
      <point x="340" y="274"/>
      <point x="334" y="274" type="curve" smooth="yes"/>
      <point x="286.667" y="274"/>
      <point x="248.667" y="268"/>
      <point x="220" y="256" type="curve" smooth="yes"/>
      <point x="191.333" y="244"/>
      <point x="170.667" y="228.5"/>
      <point x="158" y="209.5" type="curve" smooth="yes"/>
      <point x="145.333" y="190.5"/>
      <point x="139" y="170"/>
      <point x="139" y="148" type="curve" smooth="yes"/>
      <point x="139" y="118"/>
      <point x="148.333" y="94.8333"/>
      <point x="167" y="78.5" type="curve" smooth="yes"/>
      <point x="185.667" y="62.1667"/>
      <point x="209.333" y="54"/>
    </contour>
  </outline>
</glyph>
<glyph name="uni1961" format="2">
  <advance width="655"/>
  <unicode hex="1961"/>
  <anchor x="107" y="0" name="U"/>
  <outline>
    <contour>
      <point x="377" y="-239" type="curve" smooth="yes"/>
      <point x="359.667" y="-239"/>
      <point x="341.833" y="-236.667"/>
      <point x="323.5" y="-232" type="curve" smooth="yes"/>
      <point x="305.167" y="-227.333"/>
      <point x="288.5" y="-221.833"/>
      <point x="273.5" y="-215.5" type="curve" smooth="yes"/>
      <point x="258.5" y="-209.167"/>
      <point x="247" y="-203"/>
      <point x="239" y="-197" type="curve"/>
      <point x="239" y="-142" type="line"/>
      <point x="252.333" y="-154"/>
      <point x="271.167" y="-163.833"/>
      <point x="295.5" y="-171.5" type="curve" smooth="yes"/>
      <point x="319.833" y="-179.167"/>
      <point x="345.333" y="-183"/>
      <point x="372" y="-183" type="curve" smooth="yes"/>
      <point x="412" y="-183"/>
      <point x="442.667" y="-173.5"/>
      <point x="464" y="-154.5" type="curve" smooth="yes"/>
      <point x="485.333" y="-135.5"/>
      <point x="500.333" y="-108"/>
      <point x="509" y="-72" type="curve" smooth="yes"/>
      <point x="517.667" y="-36"/>
      <point x="522.667" y="6.66667"/>
      <point x="524" y="56" type="curve"/>
      <point x="499.333" y="37.3333"/>
      <point x="471" y="21.6667"/>
      <point x="439" y="9" type="curve" smooth="yes"/>
      <point x="407" y="-3.66667"/>
      <point x="378.667" y="-10"/>
      <point x="354" y="-10" type="curve" smooth="yes"/>
      <point x="310.667" y="-10"/>
      <point x="278.5" y="-0.166667"/>
      <point x="257.5" y="19.5" type="curve" smooth="yes"/>
      <point x="236.5" y="39.1667"/>
      <point x="222.833" y="68.5"/>
      <point x="216.5" y="107.5" type="curve" smooth="yes"/>
      <point x="210.167" y="146.5"/>
      <point x="207" y="195"/>
      <point x="207" y="253" type="curve" smooth="yes"/>
      <point x="207" y="325" type="line" smooth="yes"/>
      <point x="207" y="366.333"/>
      <point x="205.667" y="398.333"/>
      <point x="203" y="421" type="curve" smooth="yes"/>
      <point x="200.333" y="443.667"/>
      <point x="195.667" y="459.5"/>
      <point x="189" y="468.5" type="curve" smooth="yes"/>
      <point x="182.333" y="477.5"/>
      <point x="172.333" y="482"/>
      <point x="159" y="482" type="curve" smooth="yes"/>
      <point x="127.667" y="482"/>
      <point x="99.6667" y="447.333"/>
      <point x="75" y="378" type="curve"/>
      <point x="7" y="375" type="line"/>
      <point x="6.33333" y="399.667"/>
      <point x="4.66667" y="427.333"/>
      <point x="2" y="458" type="curve" smooth="yes"/>
      <point x="-0.666667" y="488.667"/>
      <point x="-4.66667" y="516.333"/>
      <point x="-10" y="541" type="curve"/>
      <point x="67" y="567" type="line"/>
      <point x="71" y="554.333"/>
      <point x="74.5" y="540.5"/>
      <point x="77.5" y="525.5" type="curve" smooth="yes"/>
      <point x="80.5" y="510.5"/>
      <point x="82.3333" y="494.667"/>
      <point x="83" y="478" type="curve"/>
      <point x="97.6667" y="496"/>
      <point x="114.5" y="511.833"/>
      <point x="133.5" y="525.5" type="curve" smooth="yes"/>
      <point x="152.5" y="539.167"/>
      <point x="172.333" y="546"/>
      <point x="193" y="546" type="curve" smooth="yes"/>
      <point x="217" y="546"/>
      <point x="235.833" y="538"/>
      <point x="249.5" y="522" type="curve" smooth="yes"/>
      <point x="263.167" y="506"/>
      <point x="273" y="485.667"/>
      <point x="279" y="461" type="curve" smooth="yes"/>
      <point x="285" y="436.333"/>
      <point x="288.833" y="410.167"/>
      <point x="290.5" y="382.5" type="curve" smooth="yes"/>
      <point x="292.167" y="354.833"/>
      <point x="293" y="329.333"/>
      <point x="293" y="306" type="curve" smooth="yes"/>
      <point x="293" y="260" type="line" smooth="yes"/>
      <point x="293" y="208"/>
      <point x="294.667" y="167"/>
      <point x="298" y="137" type="curve" smooth="yes"/>
      <point x="301.333" y="107"/>
      <point x="309" y="85.6667"/>
      <point x="321" y="73" type="curve" smooth="yes"/>
      <point x="333" y="60.3333"/>
      <point x="351.667" y="54"/>
      <point x="377" y="54" type="curve" smooth="yes"/>
      <point x="407" y="54"/>
      <point x="434.667" y="60.1667"/>
      <point x="460" y="72.5" type="curve" smooth="yes"/>
      <point x="485.333" y="84.8333"/>
      <point x="507" y="99.3333"/>
      <point x="525" y="116" type="curve"/>
      <point x="525" y="188" type="line" smooth="yes"/>
      <point x="525" y="213.333"/>
      <point x="524.833" y="241.333"/>
      <point x="524.5" y="272" type="curve" smooth="yes"/>
      <point x="524.167" y="302.667"/>
      <point x="523.667" y="333.333"/>
      <point x="523" y="364" type="curve" smooth="yes"/>
      <point x="522.333" y="394.667"/>
      <point x="521.333" y="423"/>
      <point x="520" y="449" type="curve" smooth="yes"/>
      <point x="518.667" y="475"/>
      <point x="517" y="496"/>
      <point x="515" y="512" type="curve"/>
      <point x="595" y="521" type="line"/>
      <point x="597" y="511.667"/>
      <point x="599" y="495.667"/>
      <point x="601" y="473" type="curve" smooth="yes"/>
      <point x="603" y="450.333"/>
      <point x="604.833" y="424"/>
      <point x="606.5" y="394" type="curve" smooth="yes"/>
      <point x="608.167" y="364"/>
      <point x="609.333" y="333"/>
      <point x="610" y="301" type="curve" smooth="yes"/>
      <point x="610.667" y="269"/>
      <point x="611" y="239"/>
      <point x="611" y="211" type="curve" smooth="yes"/>
      <point x="611" y="186" type="line" smooth="yes"/>
      <point x="611" y="124.667"/>
      <point x="607.333" y="68"/>
      <point x="600" y="16" type="curve" smooth="yes"/>
      <point x="592.667" y="-36"/>
      <point x="580.333" y="-81"/>
      <point x="563" y="-119" type="curve" smooth="yes"/>
      <point x="545.667" y="-157"/>
      <point x="521.833" y="-186.5"/>
      <point x="491.5" y="-207.5" type="curve" smooth="yes"/>
      <point x="461.167" y="-228.5"/>
      <point x="423" y="-239"/>
    </contour>
  </outline>
</glyph>
<glyph name="uni1963" format="2">
  <advance width="239"/>
  <unicode hex="1963"/>
  <anchor x="131" y="0" name="U"/>
  <outline>
    <contour>
      <point x="239" y="-10" type="line"/>
      <point x="191.667" y="-7.33333"/>
      <point x="155.333" y="0.333333"/>
      <point x="130" y="13" type="curve" smooth="yes"/>
      <point x="104.667" y="25.6667"/>
      <point x="87.3333" y="47.3333"/>
      <point x="78" y="78" type="curve" smooth="yes"/>
      <point x="68.6667" y="108.667"/>
      <point x="64" y="151.667"/>
      <point x="64" y="207" type="curve" smooth="yes"/>
      <point x="64" y="663" type="line" smooth="yes"/>
      <point x="64" y="716.333"/>
      <point x="62.5" y="761.5"/>
      <point x="59.5" y="798.5" type="curve" smooth="yes"/>
      <point x="56.5" y="835.5"/>
      <point x="51.3333" y="862.333"/>
      <point x="44" y="879" type="curve"/>
      <point x="121" y="894" type="line"/>
      <point x="129.667" y="872"/>
      <point x="136" y="845.333"/>
      <point x="140" y="814" type="curve" smooth="yes"/>
      <point x="144" y="782.667"/>
      <point x="146.667" y="751.667"/>
      <point x="148" y="721" type="curve" smooth="yes"/>
      <point x="149.333" y="690.333"/>
      <point x="150" y="664.667"/>
      <point x="150" y="644" type="curve" smooth="yes"/>
      <point x="150" y="202" type="line" smooth="yes"/>
      <point x="150" y="158"/>
      <point x="152.167" y="125.167"/>
      <point x="156.5" y="103.5" type="curve" smooth="yes"/>
      <point x="160.833" y="81.8333"/>
      <point x="169.5" y="67"/>
      <point x="182.5" y="59" type="curve" smooth="yes"/>
      <point x="195.5" y="51"/>
      <point x="214.333" y="45.3333"/>
      <point x="239" y="42" type="curve"/>
    </contour>
  </outline>
</glyph>
<glyph name="uni1964" format="2">
  <advance width="549"/>
  <unicode hex="1964"/>
  <anchor x="429" y="0" name="U"/>
  <outline>
    <contour>
      <point x="68" y="-10" type="line"/>
      <point x="66" y="7.33333"/>
      <point x="63.8333" y="31"/>
      <point x="61.5" y="61" type="curve" smooth="yes"/>
      <point x="59.1667" y="91"/>
      <point x="57" y="124"/>
      <point x="55" y="160" type="curve" smooth="yes"/>
      <point x="53" y="196"/>
      <point x="51.5" y="231.667"/>
      <point x="50.5" y="267" type="curve" smooth="yes"/>
      <point x="49.5" y="302.333"/>
      <point x="49" y="333.667"/>
      <point x="49" y="361" type="curve" smooth="yes"/>
      <point x="49" y="526" type="line" smooth="yes"/>
      <point x="49" y="572"/>
      <point x="52.8333" y="617.667"/>
      <point x="60.5" y="663" type="curve" smooth="yes"/>
      <point x="68.1667" y="708.333"/>
      <point x="80.5" y="749.5"/>
      <point x="97.5" y="786.5" type="curve" smooth="yes"/>
      <point x="114.5" y="823.5"/>
      <point x="137.167" y="853"/>
      <point x="165.5" y="875" type="curve" smooth="yes"/>
      <point x="193.833" y="897"/>
      <point x="229" y="908"/>
      <point x="271" y="908" type="curve" smooth="yes"/>
      <point x="352.333" y="908"/>
      <point x="410.833" y="870.167"/>
      <point x="446.5" y="794.5" type="curve" smooth="yes"/>
      <point x="482.167" y="718.833"/>
      <point x="500" y="602.333"/>
      <point x="500" y="445" type="curve" smooth="yes"/>
      <point x="500" y="405"/>
      <point x="499.833" y="363.667"/>
      <point x="499.5" y="321" type="curve" smooth="yes"/>
      <point x="499.167" y="278.333"/>
      <point x="498.5" y="236.667"/>
      <point x="497.5" y="196" type="curve" smooth="yes"/>
      <point x="496.5" y="155.333"/>
      <point x="495.333" y="117.833"/>
      <point x="494" y="83.5" type="curve" smooth="yes"/>
      <point x="492.667" y="49.1667"/>
      <point x="490.667" y="21"/>
      <point x="488" y="-1" type="curve"/>
      <point x="476.667" y="-3.66667"/>
      <point x="463.167" y="-5.83333"/>
      <point x="447.5" y="-7.5" type="curve" smooth="yes"/>
      <point x="431.833" y="-9.16667"/>
      <point x="416.333" y="-10"/>
      <point x="401" y="-10" type="curve" smooth="yes"/>
      <point x="357.667" y="-10"/>
      <point x="320.833" y="-0.666667"/>
      <point x="290.5" y="18" type="curve" smooth="yes"/>
      <point x="260.167" y="36.6667"/>
      <point x="237.167" y="61.5"/>
      <point x="221.5" y="92.5" type="curve" smooth="yes"/>
      <point x="205.833" y="123.5"/>
      <point x="198" y="157"/>
      <point x="198" y="193" type="curve" smooth="yes"/>
      <point x="198" y="229"/>
      <point x="205.167" y="264"/>
      <point x="219.5" y="298" type="curve" smooth="yes"/>
      <point x="233.833" y="332"/>
      <point x="257" y="361.167"/>
      <point x="289" y="385.5" type="curve" smooth="yes"/>
      <point x="321" y="409.833"/>
      <point x="363.667" y="425"/>
      <point x="417" y="431" type="curve"/>
      <point x="417" y="532.333"/>
      <point x="412.5" y="613.167"/>
      <point x="403.5" y="673.5" type="curve" smooth="yes"/>
      <point x="394.5" y="733.833"/>
      <point x="379.5" y="777.5"/>
      <point x="358.5" y="804.5" type="curve" smooth="yes"/>
      <point x="337.5" y="831.5"/>
      <point x="308.333" y="845"/>
      <point x="271" y="845" type="curve" smooth="yes"/>
      <point x="245.667" y="845"/>
      <point x="224.667" y="838"/>
      <point x="208" y="824" type="curve" smooth="yes"/>
      <point x="191.333" y="810"/>
      <point x="178" y="791.333"/>
      <point x="168" y="768" type="curve" smooth="yes"/>
      <point x="158" y="744.667"/>
      <point x="150.667" y="719.333"/>
      <point x="146" y="692" type="curve" smooth="yes"/>
      <point x="141.333" y="664.667"/>
      <point x="138.333" y="637.333"/>
      <point x="137" y="610" type="curve" smooth="yes"/>
      <point x="135.667" y="582.667"/>
      <point x="135" y="558"/>
      <point x="135" y="536" type="curve" smooth="yes"/>
      <point x="135" y="359" type="line" smooth="yes"/>
      <point x="135" y="312.333"/>
      <point x="135.833" y="266.333"/>
      <point x="137.5" y="221" type="curve" smooth="yes"/>
      <point x="139.167" y="175.667"/>
      <point x="141.333" y="134.667"/>
      <point x="144" y="98" type="curve" smooth="yes"/>
      <point x="146.667" y="61.3333"/>
      <point x="150" y="32"/>
      <point x="154" y="10" type="curve"/>
    </contour>
    <contour>
      <point x="408" y="46" type="curve"/>
      <point x="410" y="71.3333"/>
      <point x="411.5" y="101.667"/>
      <point x="412.5" y="137" type="curve" smooth="yes"/>
      <point x="413.5" y="172.333"/>
      <point x="414.333" y="210.333"/>
      <point x="415" y="251" type="curve" smooth="yes"/>
      <point x="415.667" y="291.667"/>
      <point x="416" y="332.667"/>
      <point x="416" y="374" type="curve"/>
      <point x="382.667" y="368"/>
      <point x="356.5" y="356"/>
      <point x="337.5" y="338" type="curve" smooth="yes"/>
      <point x="318.5" y="320"/>
      <point x="305.167" y="298.5"/>
      <point x="297.5" y="273.5" type="curve" smooth="yes"/>
      <point x="289.833" y="248.5"/>
      <point x="286" y="222.333"/>
      <point x="286" y="195" type="curve" smooth="yes"/>
      <point x="286" y="157.667"/>
      <point x="292.5" y="128.167"/>
      <point x="305.5" y="106.5" type="curve" smooth="yes"/>
      <point x="318.5" y="84.8333"/>
      <point x="334.5" y="69.3333"/>
      <point x="353.5" y="60" type="curve" smooth="yes"/>
      <point x="372.5" y="50.6667"/>
      <point x="390.667" y="46"/>
    </contour>
  </outline>
</glyph>
<glyph name="uni1966" format="2">
  <advance width="549"/>
  <unicode hex="1966"/>
  <anchor x="424" y="0" name="U"/>
  <outline>
    <contour>
      <point x="287" y="-239" type="curve" smooth="yes"/>
      <point x="264.333" y="-239"/>
      <point x="241.667" y="-235.833"/>
      <point x="219" y="-229.5" type="curve" smooth="yes"/>
      <point x="196.333" y="-223.167"/>
      <point x="176.333" y="-215.833"/>
      <point x="159" y="-207.5" type="curve" smooth="yes"/>
      <point x="141.667" y="-199.167"/>
      <point x="129" y="-192"/>
      <point x="121" y="-186" type="curve"/>
      <point x="121" y="-127" type="line"/>
      <point x="129.667" y="-135"/>
      <point x="142.667" y="-143.333"/>
      <point x="160" y="-152" type="curve" smooth="yes"/>
      <point x="177.333" y="-160.667"/>
      <point x="196.333" y="-168"/>
      <point x="217" y="-174" type="curve" smooth="yes"/>
      <point x="237.667" y="-180"/>
      <point x="257.667" y="-183"/>
      <point x="277" y="-183" type="curve" smooth="yes"/>
      <point x="301.667" y="-183"/>
      <point x="322.667" y="-180.5"/>
      <point x="340" y="-175.5" type="curve" smooth="yes"/>
      <point x="357.333" y="-170.5"/>
      <point x="371.5" y="-159"/>
      <point x="382.5" y="-141" type="curve" smooth="yes"/>
      <point x="393.5" y="-123"/>
      <point x="401.667" y="-95"/>
      <point x="407" y="-57" type="curve" smooth="yes"/>
      <point x="412.333" y="-19"/>
      <point x="415" y="33"/>
      <point x="415" y="99" type="curve" smooth="yes"/>
      <point x="415" y="438" type="line" smooth="yes"/>
      <point x="415" y="536.667"/>
      <point x="410.667" y="615.833"/>
      <point x="402" y="675.5" type="curve" smooth="yes"/>
      <point x="393.333" y="735.167"/>
      <point x="378.667" y="778.333"/>
      <point x="358" y="805" type="curve" smooth="yes"/>
      <point x="337.333" y="831.667"/>
      <point x="308.333" y="845"/>
      <point x="271" y="845" type="curve" smooth="yes"/>
      <point x="245.667" y="845"/>
      <point x="224.667" y="838"/>
      <point x="208" y="824" type="curve" smooth="yes"/>
      <point x="191.333" y="810"/>
      <point x="178" y="791.333"/>
      <point x="168" y="768" type="curve" smooth="yes"/>
      <point x="158" y="744.667"/>
      <point x="150.667" y="719.333"/>
      <point x="146" y="692" type="curve" smooth="yes"/>
      <point x="141.333" y="664.667"/>
      <point x="138.333" y="637.333"/>
      <point x="137" y="610" type="curve" smooth="yes"/>
      <point x="135.667" y="582.667"/>
      <point x="135" y="558"/>
      <point x="135" y="536" type="curve" smooth="yes"/>
      <point x="135" y="359" type="line" smooth="yes"/>
      <point x="135" y="312.333"/>
      <point x="135.833" y="266.333"/>
      <point x="137.5" y="221" type="curve" smooth="yes"/>
      <point x="139.167" y="175.667"/>
      <point x="141.333" y="134.667"/>
      <point x="144" y="98" type="curve" smooth="yes"/>
      <point x="146.667" y="61.3333"/>
      <point x="150" y="32"/>
      <point x="154" y="10" type="curve"/>
      <point x="68" y="-10" type="line"/>
      <point x="66" y="7.33333"/>
      <point x="63.8333" y="31"/>
      <point x="61.5" y="61" type="curve" smooth="yes"/>
      <point x="59.1667" y="91"/>
      <point x="57" y="124"/>
      <point x="55" y="160" type="curve" smooth="yes"/>
      <point x="53" y="196"/>
      <point x="51.5" y="231.667"/>
      <point x="50.5" y="267" type="curve" smooth="yes"/>
      <point x="49.5" y="302.333"/>
      <point x="49" y="333.667"/>
      <point x="49" y="361" type="curve" smooth="yes"/>
      <point x="49" y="526" type="line" smooth="yes"/>
      <point x="49" y="572"/>
      <point x="52.8333" y="617.667"/>
      <point x="60.5" y="663" type="curve" smooth="yes"/>
      <point x="68.1667" y="708.333"/>
      <point x="80.5" y="749.5"/>
      <point x="97.5" y="786.5" type="curve" smooth="yes"/>
      <point x="114.5" y="823.5"/>
      <point x="137.167" y="853"/>
      <point x="165.5" y="875" type="curve" smooth="yes"/>
      <point x="193.833" y="897"/>
      <point x="229" y="908"/>
      <point x="271" y="908" type="curve" smooth="yes"/>
      <point x="352.333" y="908"/>
      <point x="410.833" y="870.167"/>
      <point x="446.5" y="794.5" type="curve" smooth="yes"/>
      <point x="482.167" y="718.833"/>
      <point x="500" y="602.333"/>
      <point x="500" y="445" type="curve" smooth="yes"/>
      <point x="500" y="155" type="line" smooth="yes"/>
      <point x="500" y="77.6667"/>
      <point x="495.667" y="13.5"/>
      <point x="487" y="-37.5" type="curve" smooth="yes"/>
      <point x="478.333" y="-88.5"/>
      <point x="465.333" y="-128.667"/>
      <point x="448" y="-158" type="curve" smooth="yes"/>
      <point x="430.667" y="-187.333"/>
      <point x="408.667" y="-208.167"/>
      <point x="382" y="-220.5" type="curve" smooth="yes"/>
      <point x="355.333" y="-232.833"/>
      <point x="323.667" y="-239"/>
    </contour>
  </outline>
</glyph>
<glyph name="uni1967" format="2">
  <advance width="290"/>
  <unicode hex="1967"/>
  <anchor x="-123" y="0" name="U"/>
  <outline>
    <contour>
      <point x="246" y="-125" type="curve" smooth="yes"/>
      <point x="178" y="-125"/>
      <point x="130.667" y="-106"/>
      <point x="104" y="-68" type="curve" smooth="yes"/>
      <point x="77.3333" y="-30"/>
      <point x="64" y="32.3333"/>
      <point x="64" y="119" type="curve" smooth="yes"/>
      <point x="64" y="302" type="line" smooth="yes"/>
      <point x="64" y="355.333"/>
      <point x="62.5" y="403"/>
      <point x="59.5" y="445" type="curve" smooth="yes"/>
      <point x="56.5" y="487"/>
      <point x="51.3333" y="516.333"/>
      <point x="44" y="533" type="curve"/>
      <point x="121" y="547" type="line"/>
      <point x="127" y="530.333"/>
      <point x="132" y="510.167"/>
      <point x="136" y="486.5" type="curve" smooth="yes"/>
      <point x="140" y="462.833"/>
      <point x="143" y="438.333"/>
      <point x="145" y="413" type="curve" smooth="yes"/>
      <point x="147" y="387.667"/>
      <point x="148.333" y="363.5"/>
      <point x="149" y="340.5" type="curve" smooth="yes"/>
      <point x="149.667" y="317.5"/>
      <point x="150" y="298.333"/>
      <point x="150" y="283" type="curve" smooth="yes"/>
      <point x="150" y="74" type="line" smooth="yes"/>
      <point x="150" y="31.3333"/>
      <point x="154.333" y="-0.166667"/>
      <point x="163" y="-20.5" type="curve" smooth="yes"/>
      <point x="171.667" y="-40.8333"/>
      <point x="184.333" y="-54"/>
      <point x="201" y="-60" type="curve" smooth="yes"/>
      <point x="217.667" y="-66"/>
      <point x="237.667" y="-69"/>
      <point x="261" y="-69" type="curve" smooth="yes"/>
      <point x="276.333" y="-69"/>
      <point x="296.167" y="-68.3333"/>
      <point x="320.5" y="-67" type="curve" smooth="yes"/>
      <point x="344.833" y="-65.6667"/>
      <point x="370.5" y="-63.8333"/>
      <point x="397.5" y="-61.5" type="curve" smooth="yes"/>
      <point x="424.5" y="-59.1667"/>
      <point x="450" y="-56.6667"/>
      <point x="474" y="-54" type="curve"/>
      <point x="483" y="-98" type="line"/>
      <point x="456.333" y="-102.667"/>
      <point x="428.333" y="-107.167"/>
      <point x="399" y="-111.5" type="curve" smooth="yes"/>
      <point x="369.667" y="-115.833"/>
      <point x="341.833" y="-119.167"/>
      <point x="315.5" y="-121.5" type="curve" smooth="yes"/>
      <point x="289.167" y="-123.833"/>
      <point x="266" y="-125"/>
    </contour>
    <contour>
      <point x="236" y="-239" type="curve" smooth="yes"/>
      <point x="212.667" y="-239"/>
      <point x="187" y="-237.167"/>
      <point x="159" y="-233.5" type="curve" smooth="yes"/>
      <point x="131" y="-229.833"/>
      <point x="103" y="-220.833"/>
      <point x="75" y="-206.5" type="curve" smooth="yes"/>
      <point x="47" y="-192.167"/>
      <point x="21.6667" y="-169"/>
      <point x="-1" y="-137" type="curve"/>
      <point x="49" y="-82" type="line"/>
      <point x="65.6667" y="-109.333"/>
      <point x="85.3333" y="-130.167"/>
      <point x="108" y="-144.5" type="curve" smooth="yes"/>
      <point x="130.667" y="-158.833"/>
      <point x="154.333" y="-168.667"/>
      <point x="179" y="-174" type="curve" smooth="yes"/>
      <point x="203.667" y="-179.333"/>
      <point x="227" y="-182"/>
      <point x="249" y="-182" type="curve" smooth="yes"/>
      <point x="300.333" y="-182"/>
      <point x="343.167" y="-179"/>
      <point x="377.5" y="-173" type="curve" smooth="yes"/>
      <point x="411.833" y="-167"/>
      <point x="444.667" y="-160"/>
      <point x="476" y="-152" type="curve"/>
      <point x="485" y="-195" type="line"/>
      <point x="465" y="-202.333"/>
      <point x="440.5" y="-209.333"/>
      <point x="411.5" y="-216" type="curve" smooth="yes"/>
      <point x="382.5" y="-222.667"/>
      <point x="352.5" y="-228.167"/>
      <point x="321.5" y="-232.5" type="curve" smooth="yes"/>
      <point x="290.5" y="-236.833"/>
      <point x="262" y="-239"/>
    </contour>
  </outline>
</glyph>
<glyph name="uni1969" format="2">
  <advance width="502"/>
  <unicode hex="1969"/>
  <anchor x="14" y="0" name="U"/>
  <outline>
    <contour>
      <point x="250" y="-239" type="curve" smooth="yes"/>
      <point x="205.333" y="-239"/>
      <point x="168.167" y="-225.667"/>
      <point x="138.5" y="-199" type="curve" smooth="yes"/>
      <point x="108.833" y="-172.333"/>
      <point x="86.5" y="-130"/>
      <point x="71.5" y="-72" type="curve" smooth="yes"/>
      <point x="56.5" y="-14"/>
      <point x="49" y="62"/>
      <point x="49" y="156" type="curve" smooth="yes"/>
      <point x="49" y="194.667"/>
      <point x="49.5" y="233.167"/>
      <point x="50.5" y="271.5" type="curve" smooth="yes"/>
      <point x="51.5" y="309.833"/>
      <point x="52.8333" y="346.167"/>
      <point x="54.5" y="380.5" type="curve" smooth="yes"/>
      <point x="56.1667" y="414.833"/>
      <point x="57.8333" y="444.833"/>
      <point x="59.5" y="470.5" type="curve" smooth="yes"/>
      <point x="61.1667" y="496.167"/>
      <point x="62.6667" y="515.333"/>
      <point x="64" y="528" type="curve"/>
      <point x="147" y="546" type="line"/>
      <point x="146.333" y="530.667"/>
      <point x="144.833" y="503.833"/>
      <point x="142.5" y="465.5" type="curve" smooth="yes"/>
      <point x="140.167" y="427.167"/>
      <point x="138" y="381.667"/>
      <point x="136" y="329" type="curve" smooth="yes"/>
      <point x="134" y="276.333"/>
      <point x="133" y="221"/>
      <point x="133" y="163" type="curve" smooth="yes"/>
      <point x="133" y="89"/>
      <point x="136.167" y="29.5"/>
      <point x="142.5" y="-15.5" type="curve" smooth="yes"/>
      <point x="148.833" y="-60.5"/>
      <point x="157.667" y="-94.5"/>
      <point x="169" y="-117.5" type="curve" smooth="yes"/>
      <point x="180.333" y="-140.5"/>
      <point x="194" y="-156"/>
      <point x="210" y="-164" type="curve" smooth="yes"/>
      <point x="226" y="-172"/>
      <point x="243.667" y="-176"/>
      <point x="263" y="-176" type="curve" smooth="yes"/>
      <point x="294.333" y="-176"/>
      <point x="317.333" y="-163.167"/>
      <point x="332" y="-137.5" type="curve" smooth="yes"/>
      <point x="346.667" y="-111.833"/>
      <point x="356.167" y="-77.3333"/>
      <point x="360.5" y="-34" type="curve" smooth="yes"/>
      <point x="364.833" y="9.33333"/>
      <point x="367" y="57.6667"/>
      <point x="367" y="111" type="curve" smooth="yes"/>
      <point x="367" y="220" type="line" smooth="yes"/>
      <point x="367" y="240"/>
      <point x="366.667" y="263.667"/>
      <point x="366" y="291" type="curve" smooth="yes"/>
      <point x="365.333" y="318.333"/>
      <point x="364.333" y="347"/>
      <point x="363" y="377" type="curve" smooth="yes"/>
      <point x="361.667" y="407"/>
      <point x="360" y="435.833"/>
      <point x="358" y="463.5" type="curve" smooth="yes"/>
      <point x="356" y="491.167"/>
      <point x="353.667" y="515.333"/>
      <point x="351" y="536" type="curve"/>
      <point x="428" y="546" type="line"/>
      <point x="431.333" y="533.333"/>
      <point x="434.333" y="513.833"/>
      <point x="437" y="487.5" type="curve" smooth="yes"/>
      <point x="439.667" y="461.167"/>
      <point x="442.333" y="432.5"/>
      <point x="445" y="401.5" type="curve" smooth="yes"/>
      <point x="447.667" y="370.5"/>
      <point x="449.667" y="340.833"/>
      <point x="451" y="312.5" type="curve" smooth="yes"/>
      <point x="452.333" y="284.167"/>
      <point x="453" y="261.667"/>
      <point x="453" y="245" type="curve" smooth="yes"/>
      <point x="453" y="180" type="line" smooth="yes"/>
      <point x="453" y="148.667"/>
      <point x="451.167" y="114.167"/>
      <point x="447.5" y="76.5" type="curve" smooth="yes"/>
      <point x="443.833" y="38.8333"/>
      <point x="437.5" y="1.5"/>
      <point x="428.5" y="-35.5" type="curve" smooth="yes"/>
      <point x="419.5" y="-72.5"/>
      <point x="407.167" y="-106.333"/>
      <point x="391.5" y="-137" type="curve" smooth="yes"/>
      <point x="375.833" y="-167.667"/>
      <point x="356.5" y="-192.333"/>
      <point x="333.5" y="-211" type="curve" smooth="yes"/>
      <point x="310.5" y="-229.667"/>
      <point x="282.667" y="-239"/>
    </contour>
  </outline>
</glyph>
<glyph name="uni196B" format="2">
  <advance width="514"/>
  <unicode hex="196B"/>
  <anchor x="390" y="0" name="U"/>
  <outline>
    <contour>
      <point x="322" y="-264" type="curve" smooth="yes"/>
      <point x="268.667" y="-264"/>
      <point x="224.833" y="-255"/>
      <point x="190.5" y="-237" type="curve" smooth="yes"/>
      <point x="156.167" y="-219"/>
      <point x="129.333" y="-193.167"/>
      <point x="110" y="-159.5" type="curve" smooth="yes"/>
      <point x="90.6667" y="-125.833"/>
      <point x="76.6667" y="-85.3333"/>
      <point x="68" y="-38" type="curve" smooth="yes"/>
      <point x="59.3333" y="9.33333"/>
      <point x="54" y="62.5"/>
      <point x="52" y="121.5" type="curve" smooth="yes"/>
      <point x="50" y="180.5"/>
      <point x="49" y="244"/>
      <point x="49" y="312" type="curve" smooth="yes"/>
      <point x="49" y="536" type="line" smooth="yes"/>
      <point x="49" y="563.333"/>
      <point x="50.8333" y="593.5"/>
      <point x="54.5" y="626.5" type="curve" smooth="yes"/>
      <point x="58.1667" y="659.5"/>
      <point x="64.3333" y="692.5"/>
      <point x="73" y="725.5" type="curve" smooth="yes"/>
      <point x="81.6667" y="758.5"/>
      <point x="93.6667" y="788.833"/>
      <point x="109" y="816.5" type="curve" smooth="yes"/>
      <point x="124.333" y="844.167"/>
      <point x="143.833" y="866.333"/>
      <point x="167.5" y="883" type="curve" smooth="yes"/>
      <point x="191.167" y="899.667"/>
      <point x="219.667" y="908"/>
      <point x="253" y="908" type="curve" smooth="yes"/>
      <point x="295" y="908"/>
      <point x="331.833" y="894"/>
      <point x="363.5" y="866" type="curve" smooth="yes"/>
      <point x="395.167" y="838"/>
      <point x="420" y="791.333"/>
      <point x="438" y="726" type="curve" smooth="yes"/>
      <point x="456" y="660.667"/>
      <point x="465" y="571.667"/>
      <point x="465" y="459" type="curve" smooth="yes"/>
      <point x="465" y="313" type="line"/>
      <point x="380" y="298" type="line"/>
      <point x="380.667" y="321.333"/>
      <point x="381" y="349.333"/>
      <point x="381" y="382" type="curve" smooth="yes"/>
      <point x="381" y="431"/>
      <point x="381" y="431"/>
      <point x="381" y="471" type="curve" smooth="yes"/>
      <point x="381" y="545"/>
      <point x="377.667" y="606.333"/>
      <point x="371" y="655" type="curve" smooth="yes"/>
      <point x="364.333" y="703.667"/>
      <point x="355.167" y="741.833"/>
      <point x="343.5" y="769.5" type="curve" smooth="yes"/>
      <point x="331.833" y="797.167"/>
      <point x="318.167" y="816.667"/>
      <point x="302.5" y="828" type="curve" smooth="yes"/>
      <point x="286.833" y="839.333"/>
      <point x="269.667" y="845"/>
      <point x="251" y="845" type="curve" smooth="yes"/>
      <point x="226.333" y="845"/>
      <point x="206.333" y="835.167"/>
      <point x="191" y="815.5" type="curve" smooth="yes"/>
      <point x="175.667" y="795.833"/>
      <point x="163.833" y="770.833"/>
      <point x="155.5" y="740.5" type="curve" smooth="yes"/>
      <point x="147.167" y="710.167"/>
      <point x="141.667" y="678.333"/>
      <point x="139" y="645" type="curve" smooth="yes"/>
      <point x="136.333" y="611.667"/>
      <point x="135" y="581.333"/>
      <point x="135" y="554" type="curve" smooth="yes"/>
      <point x="135" y="311" type="line" smooth="yes"/>
      <point x="135" y="228.333"/>
      <point x="136.833" y="155.167"/>
      <point x="140.5" y="91.5" type="curve" smooth="yes"/>
      <point x="144.167" y="27.8333"/>
      <point x="152" y="-25.6667"/>
      <point x="164" y="-69" type="curve" smooth="yes"/>
      <point x="176" y="-112.333"/>
      <point x="194.5" y="-145"/>
      <point x="219.5" y="-167" type="curve" smooth="yes"/>
      <point x="244.5" y="-189"/>
      <point x="278.667" y="-200"/>
      <point x="322" y="-200" type="curve" smooth="yes"/>
      <point x="369.333" y="-200"/>
      <point x="416.167" y="-193.167"/>
      <point x="462.5" y="-179.5" type="curve" smooth="yes"/>
      <point x="508.833" y="-165.833"/>
      <point x="554" y="-149"/>
      <point x="598" y="-129" type="curve"/>
      <point x="598" y="-189" type="line"/>
      <point x="551.333" y="-211.667"/>
      <point x="504.5" y="-229.833"/>
      <point x="457.5" y="-243.5" type="curve" smooth="yes"/>
      <point x="410.5" y="-257.167"/>
      <point x="365.333" y="-264"/>
    </contour>
  </outline>
</glyph>
<glyph name="uni196C" format="2">
  <advance width="209"/>
  <unicode hex="196C"/>
  <outline>
    <contour>
      <point x="49" y="0" type="line"/>
      <point x="49" y="536" type="line" smooth="yes"/>
      <point x="49" y="563.333"/>
      <point x="51.1667" y="593.5"/>
      <point x="55.5" y="626.5" type="curve" smooth="yes"/>
      <point x="59.8333" y="659.5"/>
      <point x="67.6667" y="692.5"/>
      <point x="79" y="725.5" type="curve" smooth="yes"/>
      <point x="90.3333" y="758.5"/>
      <point x="106.667" y="788.833"/>
      <point x="128" y="816.5" type="curve" smooth="yes"/>
      <point x="149.333" y="844.167"/>
      <point x="176.833" y="866.333"/>
      <point x="210.5" y="883" type="curve" smooth="yes"/>
      <point x="244.167" y="899.667"/>
      <point x="285.667" y="908"/>
      <point x="335" y="908" type="curve" smooth="yes"/>
      <point x="372.333" y="908"/>
      <point x="405.5" y="904.333"/>
      <point x="434.5" y="897" type="curve" smooth="yes"/>
      <point x="463.5" y="889.667"/>
      <point x="491.167" y="879.333"/>
      <point x="517.5" y="866" type="curve" smooth="yes"/>
      <point x="543.833" y="852.667"/>
      <point x="571.333" y="836.333"/>
      <point x="600" y="817" type="curve"/>
      <point x="563" y="771" type="line"/>
      <point x="539" y="789"/>
      <point x="516" y="803.333"/>
      <point x="494" y="814" type="curve" smooth="yes"/>
      <point x="472" y="824.667"/>
      <point x="448.667" y="832.5"/>
      <point x="424" y="837.5" type="curve" smooth="yes"/>
      <point x="399.333" y="842.5"/>
      <point x="371" y="845"/>
      <point x="339" y="845" type="curve" smooth="yes"/>
      <point x="301.667" y="845"/>
      <point x="270.667" y="838.5"/>
      <point x="246" y="825.5" type="curve" smooth="yes"/>
      <point x="221.333" y="812.5"/>
      <point x="201.5" y="795.333"/>
      <point x="186.5" y="774" type="curve" smooth="yes"/>
      <point x="171.5" y="752.667"/>
      <point x="160.333" y="729.167"/>
      <point x="153" y="703.5" type="curve" smooth="yes"/>
      <point x="145.667" y="677.833"/>
      <point x="140.833" y="652"/>
      <point x="138.5" y="626" type="curve" smooth="yes"/>
      <point x="136.167" y="600"/>
      <point x="135" y="576"/>
      <point x="135" y="554" type="curve" smooth="yes"/>
      <point x="135" y="0" type="line"/>
    </contour>
  </outline>
</glyph>
<glyph name="uni196D" format="2">
  <advance width="629"/>
  <unicode hex="196D"/>
  <anchor x="78" y="0" name="U"/>
  <outline>
    <contour>
      <point x="110" y="-127" type="curve" smooth="yes"/>
      <point x="94.6667" y="-127"/>
      <point x="78.8333" y="-124.5"/>
      <point x="62.5" y="-119.5" type="curve" smooth="yes"/>
      <point x="46.1667" y="-114.5"/>
      <point x="32" y="-109.333"/>
      <point x="20" y="-104" type="curve"/>
      <point x="20" y="-51" type="line"/>
      <point x="32.6667" y="-57"/>
      <point x="46.1667" y="-61.8333"/>
      <point x="60.5" y="-65.5" type="curve" smooth="yes"/>
      <point x="74.8333" y="-69.1667"/>
      <point x="89.6667" y="-71"/>
      <point x="105" y="-71" type="curve" smooth="yes"/>
      <point x="129.667" y="-71"/>
      <point x="148.833" y="-66.1667"/>
      <point x="162.5" y="-56.5" type="curve" smooth="yes"/>
      <point x="176.167" y="-46.8333"/>
      <point x="186.167" y="-29.5"/>
      <point x="192.5" y="-4.5" type="curve" smooth="yes"/>
      <point x="198.833" y="20.5"/>
      <point x="202.833" y="55.8333"/>
      <point x="204.5" y="101.5" type="curve" smooth="yes"/>
      <point x="206.167" y="147.167"/>
      <point x="207" y="206.333"/>
      <point x="207" y="279" type="curve" smooth="yes"/>
      <point x="207" y="325" type="line" smooth="yes"/>
      <point x="207" y="366.333"/>
      <point x="205.667" y="398.333"/>
      <point x="203" y="421" type="curve" smooth="yes"/>
      <point x="200.333" y="443.667"/>
      <point x="195.667" y="459.5"/>
      <point x="189" y="468.5" type="curve" smooth="yes"/>
      <point x="182.333" y="477.5"/>
      <point x="172.333" y="482"/>
      <point x="159" y="482" type="curve" smooth="yes"/>
      <point x="127.667" y="482"/>
      <point x="99.6667" y="447.333"/>
      <point x="75" y="378" type="curve"/>
      <point x="7" y="375" type="line"/>
      <point x="6.33333" y="399.667"/>
      <point x="4.66667" y="427.333"/>
      <point x="2" y="458" type="curve" smooth="yes"/>
      <point x="-0.666667" y="488.667"/>
      <point x="-4.66667" y="516.333"/>
      <point x="-10" y="541" type="curve"/>
      <point x="67" y="567" type="line"/>
      <point x="71" y="554.333"/>
      <point x="74.5" y="540.5"/>
      <point x="77.5" y="525.5" type="curve" smooth="yes"/>
      <point x="80.5" y="510.5"/>
      <point x="82.3333" y="494.667"/>
      <point x="83" y="478" type="curve"/>
      <point x="97.6667" y="496"/>
      <point x="114.5" y="511.833"/>
      <point x="133.5" y="525.5" type="curve" smooth="yes"/>
      <point x="152.5" y="539.167"/>
      <point x="172.333" y="546"/>
      <point x="193" y="546" type="curve" smooth="yes"/>
      <point x="217" y="546"/>
      <point x="235.833" y="538"/>
      <point x="249.5" y="522" type="curve" smooth="yes"/>
      <point x="263.167" y="506"/>
      <point x="273" y="485.667"/>
      <point x="279" y="461" type="curve" smooth="yes"/>
      <point x="285" y="436.333"/>
      <point x="288.833" y="410.167"/>
      <point x="290.5" y="382.5" type="curve" smooth="yes"/>
      <point x="292.167" y="354.833"/>
      <point x="293" y="329.333"/>
      <point x="293" y="306" type="curve" smooth="yes"/>
      <point x="293" y="271" type="line" smooth="yes"/>
      <point x="293" y="248.333"/>
      <point x="292.667" y="226"/>
      <point x="292" y="204" type="curve" smooth="yes"/>
      <point x="291.333" y="182"/>
      <point x="290.333" y="161.333"/>
      <point x="289" y="142" type="curve"/>
      <point x="305.667" y="130.667"/>
      <point x="324.5" y="121.333"/>
      <point x="345.5" y="114" type="curve" smooth="yes"/>
      <point x="366.5" y="106.667"/>
      <point x="388.333" y="103"/>
      <point x="411" y="103" type="curve" smooth="yes"/>
      <point x="435.667" y="103"/>
      <point x="454.333" y="108.833"/>
      <point x="467" y="120.5" type="curve" smooth="yes"/>
      <point x="479.667" y="132.167"/>
      <point x="488.333" y="152"/>
      <point x="493" y="180" type="curve" smooth="yes"/>
      <point x="497.667" y="208"/>
      <point x="500" y="246.333"/>
      <point x="500" y="295" type="curve" smooth="yes"/>
      <point x="500" y="303" type="line" smooth="yes"/>
      <point x="500" y="345.667"/>
      <point x="499.333" y="388"/>
      <point x="498" y="430" type="curve" smooth="yes"/>
      <point x="496.667" y="472"/>
      <point x="494" y="507.333"/>
      <point x="490" y="536" type="curve"/>
      <point x="570" y="546" type="line"/>
      <point x="574" y="527.333"/>
      <point x="577.5" y="496.167"/>
      <point x="580.5" y="452.5" type="curve" smooth="yes"/>
      <point x="583.5" y="408.833"/>
      <point x="585" y="359.333"/>
      <point x="585" y="304" type="curve" smooth="yes"/>
      <point x="585" y="289" type="line" smooth="yes"/>
      <point x="585" y="234.333"/>
      <point x="581.167" y="188.333"/>
      <point x="573.5" y="151" type="curve" smooth="yes"/>
      <point x="565.833" y="113.667"/>
      <point x="551.333" y="85.6667"/>
      <point x="530" y="67" type="curve" smooth="yes"/>
      <point x="508.667" y="48.3333"/>
      <point x="476.667" y="39"/>
      <point x="434" y="39" type="curve" smooth="yes"/>
      <point x="413.333" y="39"/>
      <point x="389.167" y="43.6667"/>
      <point x="361.5" y="53" type="curve" smooth="yes"/>
      <point x="333.833" y="62.3333"/>
      <point x="307.667" y="74.3333"/>
      <point x="283" y="89" type="curve"/>
      <point x="273.667" y="21"/>
      <point x="255.667" y="-32"/>
      <point x="229" y="-70" type="curve" smooth="yes"/>
      <point x="202.333" y="-108"/>
      <point x="162.667" y="-127"/>
    </contour>
  </outline>
</glyph>
<glyph name="uni1970" format="2">
  <advance width="554"/>
  <unicode hex="1970"/>
  <outline>
    <contour>
      <point x="84" y="-10" type="line"/>
      <point x="85.3333" y="0"/>
      <point x="86.8333" y="16.6667"/>
      <point x="88.5" y="40" type="curve" smooth="yes"/>
      <point x="90.1667" y="63.3333"/>
      <point x="91.8333" y="89.5"/>
      <point x="93.5" y="118.5" type="curve" smooth="yes"/>
      <point x="95.1667" y="147.5"/>
      <point x="96.5" y="175.5"/>
      <point x="97.5" y="202.5" type="curve" smooth="yes"/>
      <point x="98.5" y="229.5"/>
      <point x="99" y="251.333"/>
      <point x="99" y="268" type="curve" smooth="yes"/>
      <point x="99" y="295.333"/>
      <point x="98.3333" y="323.333"/>
      <point x="97" y="352" type="curve" smooth="yes"/>
      <point x="95.6667" y="380.667"/>
      <point x="93.3333" y="413.333"/>
      <point x="90" y="450" type="curve"/>
      <point x="77.3333" y="447.333"/>
      <point x="65.1667" y="444.5"/>
      <point x="53.5" y="441.5" type="curve" smooth="yes"/>
      <point x="41.8333" y="438.5"/>
      <point x="31.3333" y="435.667"/>
      <point x="22" y="433" type="curve"/>
      <point x="10" y="474" type="line"/>
      <point x="23.3333" y="478.667"/>
      <point x="41.6667" y="485"/>
      <point x="65" y="493" type="curve" smooth="yes"/>
      <point x="88.3333" y="501"/>
      <point x="113.667" y="509"/>
      <point x="141" y="517" type="curve" smooth="yes"/>
      <point x="168.333" y="525"/>
      <point x="194.833" y="531.833"/>
      <point x="220.5" y="537.5" type="curve" smooth="yes"/>
      <point x="246.167" y="543.167"/>
      <point x="267.667" y="546"/>
      <point x="285" y="546" type="curve" smooth="yes"/>
      <point x="302.333" y="546"/>
      <point x="320.167" y="544.167"/>
      <point x="338.5" y="540.5" type="curve" smooth="yes"/>
      <point x="356.833" y="536.833"/>
      <point x="373.667" y="529.167"/>
      <point x="389" y="517.5" type="curve" smooth="yes"/>
      <point x="404.333" y="505.833"/>
      <point x="416.833" y="488.5"/>
      <point x="426.5" y="465.5" type="curve" smooth="yes"/>
      <point x="436.167" y="442.5"/>
      <point x="441" y="411.333"/>
      <point x="441" y="372" type="curve" smooth="yes"/>
      <point x="441" y="255" type="line" smooth="yes"/>
      <point x="441" y="209.667"/>
      <point x="442" y="173.167"/>
      <point x="444" y="145.5" type="curve" smooth="yes"/>
      <point x="446" y="117.833"/>
      <point x="449.5" y="96.8333"/>
      <point x="454.5" y="82.5" type="curve" smooth="yes"/>
      <point x="459.5" y="68.1667"/>
      <point x="466.667" y="58.5"/>
      <point x="476" y="53.5" type="curve" smooth="yes"/>
      <point x="485.333" y="48.5"/>
      <point x="497.667" y="46"/>
      <point x="513" y="46" type="curve" smooth="yes"/>
      <point x="525" y="46"/>
      <point x="536.833" y="47.8333"/>
      <point x="548.5" y="51.5" type="curve" smooth="yes"/>
      <point x="560.167" y="55.1667"/>
      <point x="571.667" y="59.3333"/>
      <point x="583" y="64" type="curve"/>
      <point x="583" y="19" type="line"/>
      <point x="573" y="12.3333"/>
      <point x="560" y="5.83333"/>
      <point x="544" y="-0.5" type="curve" smooth="yes"/>
      <point x="528" y="-6.83333"/>
      <point x="512.333" y="-10"/>
      <point x="497" y="-10" type="curve" smooth="yes"/>
      <point x="461.667" y="-10"/>
      <point x="433.5" y="-0.166667"/>
      <point x="412.5" y="19.5" type="curve" smooth="yes"/>
      <point x="391.5" y="39.1667"/>
      <point x="376.667" y="72.6667"/>
      <point x="368" y="120" type="curve" smooth="yes"/>
      <point x="359.333" y="167.333"/>
      <point x="355" y="231.667"/>
      <point x="355" y="313" type="curve" smooth="yes"/>
      <point x="355" y="376" type="line" smooth="yes"/>
      <point x="355" y="408"/>
      <point x="351.833" y="431.5"/>
      <point x="345.5" y="446.5" type="curve" smooth="yes"/>
      <point x="339.167" y="461.5"/>
      <point x="330.167" y="471.167"/>
      <point x="318.5" y="475.5" type="curve" smooth="yes"/>
      <point x="306.833" y="479.833"/>
      <point x="292.333" y="482"/>
      <point x="275" y="482" type="curve" smooth="yes"/>
      <point x="262.333" y="482"/>
      <point x="247.167" y="480.833"/>
      <point x="229.5" y="478.5" type="curve" smooth="yes"/>
      <point x="211.833" y="476.167"/>
      <point x="193.333" y="473"/>
      <point x="174" y="469" type="curve"/>
      <point x="176.667" y="444.333"/>
      <point x="178.667" y="418.333"/>
      <point x="180" y="391" type="curve" smooth="yes"/>
      <point x="181.333" y="363.667"/>
      <point x="182.5" y="337.667"/>
      <point x="183.5" y="313" type="curve" smooth="yes"/>
      <point x="184.5" y="288.333"/>
      <point x="185" y="267.667"/>
      <point x="185" y="251" type="curve" smooth="yes"/>
      <point x="185" y="236.333"/>
      <point x="184.667" y="218"/>
      <point x="184" y="196" type="curve" smooth="yes"/>
      <point x="183.333" y="174"/>
      <point x="182.5" y="151"/>
      <point x="181.5" y="127" type="curve" smooth="yes"/>
      <point x="180.5" y="103"/>
      <point x="179.167" y="80.6667"/>
      <point x="177.5" y="60" type="curve" smooth="yes"/>
      <point x="175.833" y="39.3333"/>
      <point x="174" y="22.6667"/>
      <point x="172" y="10" type="curve"/>
    </contour>
  </outline>
</glyph>
<glyph name="uni1972" format="2">
  <advance width="603"/>
  <unicode hex="1972"/>
  <outline>
    <contour>
      <point x="233" y="-10" type="curve" smooth="yes"/>
      <point x="198.333" y="-10"/>
      <point x="166.667" y="-0.333333"/>
      <point x="138" y="19" type="curve" smooth="yes"/>
      <point x="109.333" y="38.3333"/>
      <point x="86.5" y="66.1667"/>
      <point x="69.5" y="102.5" type="curve" smooth="yes"/>
      <point x="52.5" y="138.833"/>
      <point x="44" y="182"/>
      <point x="44" y="232" type="curve" smooth="yes"/>
      <point x="44" y="274"/>
      <point x="51.3333" y="313.833"/>
      <point x="66" y="351.5" type="curve" smooth="yes"/>
      <point x="80.6667" y="389.167"/>
      <point x="100.167" y="422.667"/>
      <point x="124.5" y="452" type="curve" smooth="yes"/>
      <point x="148.833" y="481.333"/>
      <point x="176" y="504.333"/>
      <point x="206" y="521" type="curve" smooth="yes"/>
      <point x="236" y="537.667"/>
      <point x="266.333" y="546"/>
      <point x="297" y="546" type="curve" smooth="yes"/>
      <point x="341.667" y="546"/>
      <point x="378.833" y="535.333"/>
      <point x="408.5" y="514" type="curve" smooth="yes"/>
      <point x="438.167" y="492.667"/>
      <point x="460.5" y="463.167"/>
      <point x="475.5" y="425.5" type="curve" smooth="yes"/>
      <point x="490.5" y="387.833"/>
      <point x="498" y="344"/>
      <point x="498" y="294" type="curve" smooth="yes"/>
      <point x="498" y="255" type="line" smooth="yes"/>
      <point x="498" y="209.667"/>
      <point x="498.667" y="173.167"/>
      <point x="500" y="145.5" type="curve" smooth="yes"/>
      <point x="501.333" y="117.833"/>
      <point x="504.167" y="96.8333"/>
      <point x="508.5" y="82.5" type="curve" smooth="yes"/>
      <point x="512.833" y="68.1667"/>
      <point x="519.167" y="58.5"/>
      <point x="527.5" y="53.5" type="curve" smooth="yes"/>
      <point x="535.833" y="48.5"/>
      <point x="547.333" y="46"/>
      <point x="562" y="46" type="curve" smooth="yes"/>
      <point x="574" y="46"/>
      <point x="585.833" y="47.8333"/>
      <point x="597.5" y="51.5" type="curve" smooth="yes"/>
      <point x="609.167" y="55.1667"/>
      <point x="620.667" y="59.3333"/>
      <point x="632" y="64" type="curve"/>
      <point x="632" y="21" type="line"/>
      <point x="622" y="14.3333"/>
      <point x="609" y="7.5"/>
      <point x="593" y="0.5" type="curve" smooth="yes"/>
      <point x="577" y="-6.5"/>
      <point x="561.333" y="-10"/>
      <point x="546" y="-10" type="curve" smooth="yes"/>
      <point x="513.333" y="-10"/>
      <point x="487.667" y="-1.83333"/>
      <point x="469" y="14.5" type="curve" smooth="yes"/>
      <point x="450.333" y="30.8333"/>
      <point x="436.333" y="58.6667"/>
      <point x="427" y="98" type="curve"/>
      <point x="401" y="64.6667"/>
      <point x="370.5" y="38.3333"/>
      <point x="335.5" y="19" type="curve" smooth="yes"/>
      <point x="300.5" y="-0.333333"/>
      <point x="266.333" y="-10"/>
    </contour>
    <contour>
      <point x="265" y="54" type="curve" smooth="yes"/>
      <point x="306.333" y="54"/>
      <point x="337.5" y="64.5"/>
      <point x="358.5" y="85.5" type="curve" smooth="yes"/>
      <point x="379.5" y="106.5"/>
      <point x="393.667" y="133.833"/>
      <point x="401" y="167.5" type="curve" smooth="yes"/>
      <point x="408.333" y="201.167"/>
      <point x="412" y="237"/>
      <point x="412" y="275" type="curve" smooth="yes"/>
      <point x="412" y="314.333"/>
      <point x="408.167" y="349.667"/>
      <point x="400.5" y="381" type="curve" smooth="yes"/>
      <point x="392.833" y="412.333"/>
      <point x="379.667" y="437"/>
      <point x="361" y="455" type="curve" smooth="yes"/>
      <point x="342.333" y="473"/>
      <point x="316" y="482"/>
      <point x="282" y="482" type="curve" smooth="yes"/>
      <point x="229.333" y="482"/>
      <point x="190.833" y="462.333"/>
      <point x="166.5" y="423" type="curve" smooth="yes"/>
      <point x="142.167" y="383.667"/>
      <point x="130" y="332.333"/>
      <point x="130" y="269" type="curve" smooth="yes"/>
      <point x="130" y="205.667"/>
      <point x="140.833" y="154"/>
      <point x="162.5" y="114" type="curve" smooth="yes"/>
      <point x="184.167" y="74"/>
      <point x="218.333" y="54"/>
    </contour>
  </outline>
</glyph>
<glyph name="uni1973" format="2">
  <advance width="546"/>
  <unicode hex="1973"/>
  <outline>
    <contour>
      <point x="243" y="-10" type="curve" smooth="yes"/>
      <point x="178.333" y="-10"/>
      <point x="131.5" y="12.1667"/>
      <point x="102.5" y="56.5" type="curve" smooth="yes"/>
      <point x="73.5" y="100.833"/>
      <point x="59" y="166.333"/>
      <point x="59" y="253" type="curve" smooth="yes"/>
      <point x="59" y="276" type="line" smooth="yes"/>
      <point x="59" y="310"/>
      <point x="58.3333" y="344"/>
      <point x="57" y="378" type="curve" smooth="yes"/>
      <point x="55.6667" y="412"/>
      <point x="53.8333" y="442.333"/>
      <point x="51.5" y="469" type="curve" smooth="yes"/>
      <point x="49.1667" y="495.667"/>
      <point x="46.6667" y="515.333"/>
      <point x="44" y="528" type="curve"/>
      <point x="126" y="546" type="line"/>
      <point x="132.667" y="519.333"/>
      <point x="137.5" y="482"/>
      <point x="140.5" y="434" type="curve" smooth="yes"/>
      <point x="143.5" y="386"/>
      <point x="145" y="334.333"/>
      <point x="145" y="279" type="curve" smooth="yes"/>
      <point x="145" y="260" type="line" smooth="yes"/>
      <point x="145" y="208"/>
      <point x="149" y="167"/>
      <point x="157" y="137" type="curve" smooth="yes"/>
      <point x="165" y="107"/>
      <point x="177.667" y="85.6667"/>
      <point x="195" y="73" type="curve" smooth="yes"/>
      <point x="212.333" y="60.3333"/>
      <point x="234.667" y="54"/>
      <point x="262" y="54" type="curve" smooth="yes"/>
      <point x="298.667" y="54"/>
      <point x="327.667" y="61"/>
      <point x="349" y="75" type="curve" smooth="yes"/>
      <point x="370.333" y="89"/>
      <point x="385.833" y="107.5"/>
      <point x="395.5" y="130.5" type="curve" smooth="yes"/>
      <point x="405.167" y="153.5"/>
      <point x="411.333" y="178.333"/>
      <point x="414" y="205" type="curve"/>
      <point x="396" y="205" type="line" smooth="yes"/>
      <point x="359.333" y="205"/>
      <point x="328.333" y="212.667"/>
      <point x="303" y="228" type="curve" smooth="yes"/>
      <point x="277.667" y="243.333"/>
      <point x="258.5" y="263.167"/>
      <point x="245.5" y="287.5" type="curve" smooth="yes"/>
      <point x="232.5" y="311.833"/>
      <point x="226" y="337.333"/>
      <point x="226" y="364" type="curve" smooth="yes"/>
      <point x="226" y="392.667"/>
      <point x="233.833" y="420.833"/>
      <point x="249.5" y="448.5" type="curve" smooth="yes"/>
      <point x="265.167" y="476.167"/>
      <point x="288.833" y="499.333"/>
      <point x="320.5" y="518" type="curve" smooth="yes"/>
      <point x="352.167" y="536.667"/>
      <point x="392" y="546"/>
      <point x="440" y="546" type="curve" smooth="yes"/>
      <point x="448" y="546"/>
      <point x="455.667" y="545.5"/>
      <point x="463" y="544.5" type="curve" smooth="yes"/>
      <point x="470.333" y="543.5"/>
      <point x="475.667" y="542.333"/>
      <point x="479" y="541" type="curve"/>
      <point x="485" y="515"/>
      <point x="490.333" y="479"/>
      <point x="495" y="433" type="curve" smooth="yes"/>
      <point x="499.667" y="387"/>
      <point x="502" y="336.333"/>
      <point x="502" y="281" type="curve" smooth="yes"/>
      <point x="502" y="267" type="line" smooth="yes"/>
      <point x="502" y="221"/>
      <point x="494.5" y="180.667"/>
      <point x="479.5" y="146" type="curve" smooth="yes"/>
      <point x="464.5" y="111.333"/>
      <point x="444.5" y="82.5"/>
      <point x="419.5" y="59.5" type="curve" smooth="yes"/>
      <point x="394.5" y="36.5"/>
      <point x="366.667" y="19.1667"/>
      <point x="336" y="7.5" type="curve" smooth="yes"/>
      <point x="305.333" y="-4.16667"/>
      <point x="274.333" y="-10"/>
    </contour>
    <contour>
      <point x="402" y="261" type="curve" smooth="yes"/>
      <point x="416" y="261" type="line"/>
      <point x="416" y="302.333"/>
      <point x="415.167" y="344.333"/>
      <point x="413.5" y="387" type="curve" smooth="yes"/>
      <point x="411.833" y="429.667"/>
      <point x="409.667" y="466.333"/>
      <point x="407" y="497" type="curve"/>
      <point x="369" y="490.333"/>
      <point x="343.667" y="474.5"/>
      <point x="331" y="449.5" type="curve" smooth="yes"/>
      <point x="318.333" y="424.5"/>
      <point x="312" y="397"/>
      <point x="312" y="367" type="curve" smooth="yes"/>
      <point x="312" y="339.667"/>
      <point x="316.667" y="318.333"/>
      <point x="326" y="303" type="curve" smooth="yes"/>
      <point x="335.333" y="287.667"/>
      <point x="347" y="276.833"/>
      <point x="361" y="270.5" type="curve" smooth="yes"/>
      <point x="375" y="264.167"/>
      <point x="388.667" y="261"/>
    </contour>
  </outline>
</glyph>
<glyph name="uni1974" format="2">
  <advance width="523"/>
  <unicode hex="1974"/>
  <outline>
    <contour>
      <point x="269" y="-10" type="curve" smooth="yes"/>
      <point x="198.333" y="-10"/>
      <point x="143.167" y="14.3333"/>
      <point x="103.5" y="63" type="curve" smooth="yes"/>
      <point x="63.8333" y="111.667"/>
      <point x="44" y="180.333"/>
      <point x="44" y="269" type="curve" smooth="yes"/>
      <point x="44" y="301.667"/>
      <point x="49.5" y="334.333"/>
      <point x="60.5" y="367" type="curve" smooth="yes"/>
      <point x="71.5" y="399.667"/>
      <point x="87.5" y="429.5"/>
      <point x="108.5" y="456.5" type="curve" smooth="yes"/>
      <point x="129.5" y="483.5"/>
      <point x="154.667" y="505.167"/>
      <point x="184" y="521.5" type="curve" smooth="yes"/>
      <point x="213.333" y="537.833"/>
      <point x="246" y="546"/>
      <point x="282" y="546" type="curve" smooth="yes"/>
      <point x="328.667" y="546"/>
      <point x="366.333" y="537.167"/>
      <point x="395" y="519.5" type="curve" smooth="yes"/>
      <point x="423.667" y="501.833"/>
      <point x="445.667" y="477.333"/>
      <point x="461" y="446" type="curve"/>
      <point x="389" y="416" type="line"/>
      <point x="377.667" y="437.333"/>
      <point x="363.167" y="453.667"/>
      <point x="345.5" y="465" type="curve" smooth="yes"/>
      <point x="327.833" y="476.333"/>
      <point x="304" y="482"/>
      <point x="274" y="482" type="curve" smooth="yes"/>
      <point x="221.333" y="482"/>
      <point x="184.167" y="462.333"/>
      <point x="162.5" y="423" type="curve" smooth="yes"/>
      <point x="140.833" y="383.667"/>
      <point x="130" y="332.333"/>
      <point x="130" y="269" type="curve" smooth="yes"/>
      <point x="130" y="227"/>
      <point x="136.833" y="189.833"/>
      <point x="150.5" y="157.5" type="curve" smooth="yes"/>
      <point x="164.167" y="125.167"/>
      <point x="183" y="99.8333"/>
      <point x="207" y="81.5" type="curve" smooth="yes"/>
      <point x="231" y="63.1667"/>
      <point x="258.667" y="54"/>
      <point x="290" y="54" type="curve" smooth="yes"/>
      <point x="322" y="54"/>
      <point x="353.333" y="60.1667"/>
      <point x="384" y="72.5" type="curve" smooth="yes"/>
      <point x="414.667" y="84.8333"/>
      <point x="440.333" y="99"/>
      <point x="461" y="115" type="curve"/>
      <point x="479" y="81" type="line"/>
      <point x="463" y="67"/>
      <point x="443.833" y="53"/>
      <point x="421.5" y="39" type="curve" smooth="yes"/>
      <point x="399.167" y="25"/>
      <point x="375" y="13.3333"/>
      <point x="349" y="4" type="curve" smooth="yes"/>
      <point x="323" y="-5.33333"/>
      <point x="296.333" y="-10"/>
    </contour>
  </outline>
</glyph>
<glyph name="uni3001" format="2">
  <advance width="415"/>
  <unicode hex="3001"/>
  <outline>
    <contour>
      <point x="217" y="-49" type="curve" smooth="yes"/>
      <point x="204.333" y="-49"/>
      <point x="194.5" y="-45.5"/>
      <point x="187.5" y="-38.5" type="curve" smooth="yes"/>
      <point x="180.5" y="-31.5"/>
      <point x="175" y="-18"/>
      <point x="171" y="2" type="curve" smooth="yes"/>
      <point x="162.333" y="45.3333"/>
      <point x="148.333" y="80"/>
      <point x="129" y="106" type="curve" smooth="yes"/>
      <point x="109.667" y="132"/>
      <point x="86.3333" y="153.667"/>
      <point x="59" y="171" type="curve"/>
      <point x="82" y="198" type="line"/>
      <point x="100.667" y="192"/>
      <point x="120.833" y="181.667"/>
      <point x="142.5" y="167" type="curve" smooth="yes"/>
      <point x="164.167" y="152.333"/>
      <point x="184.5" y="135"/>
      <point x="203.5" y="115" type="curve" smooth="yes"/>
      <point x="222.5" y="95"/>
      <point x="238" y="74.5"/>
      <point x="250" y="53.5" type="curve" smooth="yes"/>
      <point x="262" y="32.5"/>
      <point x="268" y="13"/>
      <point x="268" y="-5" type="curve" smooth="yes"/>
      <point x="268" y="-34.3333"/>
      <point x="251" y="-49"/>
    </contour>
  </outline>
</glyph>
<glyph name="uni3009" format="2">
  <advance width="381"/>
  <unicode hex="3009"/>
  <outline>
    <contour>
      <point x="95" y="-7" type="line"/>
      <point x="49" y="10" type="line"/>
      <point x="274" y="376" type="line"/>
      <point x="49" y="742" type="line"/>
      <point x="95" y="760" type="line"/>
      <point x="332" y="376" type="line"/>
    </contour>
  </outline>
</glyph>
<glyph name="uni300A" format="2">
  <advance width="576"/>
  <unicode hex="300A"/>
  <outline>
    <contour>
      <point x="481" y="-7" type="line"/>
      <point x="244" y="376" type="line"/>
      <point x="481" y="760" type="line"/>
      <point x="527" y="742" type="line"/>
      <point x="302" y="376" type="line"/>
      <point x="527" y="10" type="line"/>
    </contour>
    <contour>
      <point x="286" y="-7" type="line"/>
      <point x="49" y="376" type="line"/>
      <point x="286" y="760" type="line"/>
      <point x="332" y="742" type="line"/>
      <point x="107" y="376" type="line"/>
      <point x="332" y="10" type="line"/>
    </contour>
  </outline>
</glyph>
<glyph name="uni0300.space" format="2">
  <advance width="441"/>
  <outline>
    <contour>
      <point x="217" y="606" type="line"/>
      <point x="201" y="619.333"/>
      <point x="183.5" y="635.333"/>
      <point x="164.5" y="654" type="curve" smooth="yes"/>
      <point x="145.5" y="672.667"/>
      <point x="127.833" y="691.333"/>
      <point x="111.5" y="710" type="curve" smooth="yes"/>
      <point x="95.1667" y="728.667"/>
      <point x="83" y="744"/>
      <point x="75" y="756" type="curve"/>
      <point x="75" y="766" type="line"/>
      <point x="180" y="766" type="line"/>
      <point x="187.333" y="752"/>
      <point x="196.5" y="735.667"/>
      <point x="207.5" y="717" type="curve" smooth="yes"/>
      <point x="218.5" y="698.333"/>
      <point x="230.167" y="680.167"/>
      <point x="242.5" y="662.5" type="curve" smooth="yes"/>
      <point x="254.833" y="644.833"/>
      <point x="266" y="630"/>
      <point x="276" y="618" type="curve"/>
      <point x="276" y="606" type="line"/>
    </contour>
  </outline>
</glyph>
<glyph name="uni0308.space" format="2">
  <advance width="441"/>
  <outline>
    <contour>
      <point x="127" y="631" type="curve" smooth="yes"/>
      <point x="114.333" y="631"/>
      <point x="103.333" y="635"/>
      <point x="94" y="643" type="curve" smooth="yes"/>
      <point x="84.6667" y="651"/>
      <point x="80" y="663.667"/>
      <point x="80" y="681" type="curve" smooth="yes"/>
      <point x="80" y="698.333"/>
      <point x="84.6667" y="710.833"/>
      <point x="94" y="718.5" type="curve" smooth="yes"/>
      <point x="103.333" y="726.167"/>
      <point x="114.333" y="730"/>
      <point x="127" y="730" type="curve" smooth="yes"/>
      <point x="139.667" y="730"/>
      <point x="150.667" y="726.167"/>
      <point x="160" y="718.5" type="curve" smooth="yes"/>
      <point x="169.333" y="710.833"/>
      <point x="174" y="698.333"/>
      <point x="174" y="681" type="curve" smooth="yes"/>
      <point x="174" y="663.667"/>
      <point x="169.333" y="651"/>
      <point x="160" y="643" type="curve" smooth="yes"/>
      <point x="150.667" y="635"/>
      <point x="139.667" y="631"/>
    </contour>
    <contour>
      <point x="314" y="631" type="curve" smooth="yes"/>
      <point x="301.333" y="631"/>
      <point x="290.5" y="635"/>
      <point x="281.5" y="643" type="curve" smooth="yes"/>
      <point x="272.5" y="651"/>
      <point x="268" y="663.667"/>
      <point x="268" y="681" type="curve" smooth="yes"/>
      <point x="268" y="698.333"/>
      <point x="272.5" y="710.833"/>
      <point x="281.5" y="718.5" type="curve" smooth="yes"/>
      <point x="290.5" y="726.167"/>
      <point x="301.333" y="730"/>
      <point x="314" y="730" type="curve" smooth="yes"/>
      <point x="326.667" y="730"/>
      <point x="337.667" y="726.167"/>
      <point x="347" y="718.5" type="curve" smooth="yes"/>
      <point x="356.333" y="710.833"/>
      <point x="361" y="698.333"/>
      <point x="361" y="681" type="curve" smooth="yes"/>
      <point x="361" y="663.667"/>
      <point x="356.333" y="651"/>
      <point x="347" y="643" type="curve" smooth="yes"/>
      <point x="337.667" y="635"/>
      <point x="326.667" y="631"/>
    </contour>
  </outline>
</glyph>
<glyph name="uni030C.space" format="2">
  <advance width="441"/>
  <outline>
    <contour>
      <point x="175" y="606" type="line"/>
      <point x="155" y="639.333"/>
      <point x="114" y="688.333"/>
      <point x="52" y="753" type="curve"/>
      <point x="52" y="766" type="line"/>
      <point x="112" y="766" type="line"/>
      <point x="149.333" y="742"/>
      <point x="185" y="711.333"/>
      <point x="219" y="674" type="curve"/>
      <point x="239.667" y="694.667"/>
      <point x="259" y="712.667"/>
      <point x="277" y="728" type="curve" smooth="yes"/>
      <point x="295" y="743.333"/>
      <point x="312" y="756"/>
      <point x="328" y="766" type="curve"/>
      <point x="390" y="766" type="line"/>
      <point x="390" y="753" type="line"/>
      <point x="322" y="685"/>
      <point x="280.333" y="636"/>
      <point x="265" y="606" type="curve"/>
    </contour>
  </outline>
</glyph>
<glyph name="uni196C.wide" format="2">
  <advance width="684"/>
  <anchor x="273" y="-27" name="U"/>
  <outline>
    <contour>
      <point x="49" y="0" type="line"/>
      <point x="49" y="535" type="line" smooth="yes"/>
      <point x="49" y="606.333"/>
      <point x="58.8333" y="670"/>
      <point x="78.5" y="726" type="curve" smooth="yes"/>
      <point x="98.1667" y="782"/>
      <point x="129" y="826.333"/>
      <point x="171" y="859" type="curve" smooth="yes"/>
      <point x="213" y="891.667"/>
      <point x="267.333" y="908"/>
      <point x="334" y="908" type="curve" smooth="yes"/>
      <point x="370" y="908"/>
      <point x="402.167" y="904.833"/>
      <point x="430.5" y="898.5" type="curve" smooth="yes"/>
      <point x="458.833" y="892.167"/>
      <point x="486.333" y="882.333"/>
      <point x="513" y="869" type="curve" smooth="yes"/>
      <point x="539.667" y="855.667"/>
      <point x="568.667" y="838.333"/>
      <point x="600" y="817" type="curve"/>
      <point x="563" y="771" type="line"/>
      <point x="537" y="790.333"/>
      <point x="512.667" y="805.333"/>
      <point x="490" y="816" type="curve" smooth="yes"/>
      <point x="467.333" y="826.667"/>
      <point x="444" y="834.167"/>
      <point x="420" y="838.5" type="curve" smooth="yes"/>
      <point x="396" y="842.833"/>
      <point x="369" y="845"/>
      <point x="339" y="845" type="curve" smooth="yes"/>
      <point x="272.333" y="845"/>
      <point x="221.667" y="821.333"/>
      <point x="187" y="774" type="curve" smooth="yes"/>
      <point x="152.333" y="726.667"/>
      <point x="135" y="653.333"/>
      <point x="135" y="554" type="curve" smooth="yes"/>
      <point x="135" y="0" type="line"/>
    </contour>
  </outline>
</glyph>
